<svg width="163" height="33" viewBox="0 0 163 33" fill="none" xmlns="http://www.w3.org/2000/svg">
<path d="M1.11771 0.266981C1.90942 0.233167 2.70113 0.211287 3.49284 0.191397C3.71825 0.181451 3.94179 0.171506 4.17465 0.161561C4.78752 0.151615 5.35569 0.157583 5.96112 0.266981C6.44546 0.772204 6.44546 0.772204 6.70626 1.46042C6.81617 1.7011 6.92794 1.94376 7.03971 2.18444C7.15334 2.45296 7.26884 2.72149 7.38061 2.99001C8.07731 4.60513 8.84295 6.17649 9.62534 7.74587C10.0799 8.65885 10.5158 9.57979 10.9442 10.5067C11.097 10.8349 11.2516 11.1611 11.41 11.4853C11.9222 12.5375 11.9222 12.5375 11.9222 13.1959C12.0452 13.1959 12.1681 13.1959 12.2948 13.1959C12.3563 13.3431 12.4159 13.4883 12.4792 13.6395C12.5612 13.8344 12.6413 14.0273 12.7251 14.2282C12.8052 14.4192 12.8853 14.6101 12.9673 14.809C13.2132 15.354 13.4908 15.8613 13.7851 16.3784C13.9136 16.6987 14.0422 17.0209 14.167 17.3431C14.6308 18.4669 15.1673 19.5569 15.7001 20.645C16.2068 21.6892 16.2068 21.6892 16.2068 22.3456C16.3297 22.3456 16.4527 22.3456 16.5794 22.3456C16.9575 23.0875 17.1382 23.4734 17.1382 24.3347C17.2612 24.3347 17.3841 24.3347 17.5108 24.3347C17.6337 24.5972 17.7567 24.8598 17.8834 25.1303C18.0063 25.1303 18.1292 25.1303 18.2559 25.1303C18.2783 24.9891 18.3006 24.8479 18.323 24.7027C18.6751 23.0219 19.5003 21.4585 20.2287 19.9349C20.5435 19.2466 20.8062 18.5445 21.0632 17.8304C21.2272 17.3988 21.4097 16.991 21.6091 16.5773C21.8829 16.0104 22.1139 15.4416 22.3318 14.8488C22.7044 13.8245 23.1385 12.8339 23.5744 11.8394C23.8799 11.1253 24.1481 10.4033 24.4145 9.67327C24.638 9.09048 24.9026 8.53752 25.1801 7.98257C25.3441 7.60265 25.4372 7.23866 25.521 6.8309C25.644 6.8309 25.7669 6.8309 25.8936 6.8309C25.9234 6.57431 25.9234 6.57431 25.9551 6.31175C26.0855 5.60364 26.2997 5.05466 26.5922 4.40623C26.6928 4.18345 26.7915 3.95869 26.8958 3.72796C26.9946 3.50518 27.0951 3.2824 27.1976 3.05167C27.4435 2.47087 27.6857 1.89006 27.9278 1.30925C28.129 0.863701 28.129 0.863701 28.5016 0.266981C28.971 0.199353 28.971 0.199353 29.556 0.209298C29.7665 0.211287 29.9751 0.213277 30.1893 0.215266C30.4092 0.219244 30.6271 0.225211 30.8525 0.229189C31.1841 0.233167 31.1841 0.233167 31.5213 0.237145C32.0671 0.245102 32.6129 0.255047 33.1587 0.266981C33.0358 0.33262 32.9128 0.39826 32.7861 0.465888C32.7861 0.662805 32.7861 0.859723 32.7861 1.06261C32.6129 1.08051 32.6129 1.08051 32.4359 1.1004C32.0093 1.22372 32.0093 1.22372 31.8324 1.65933C31.6144 2.45495 31.6181 3.18494 31.6256 4.0104C31.6256 4.17947 31.6256 4.34854 31.6256 4.52358C31.6256 4.88161 31.6275 5.23965 31.6293 5.59967C31.633 6.14069 31.633 6.68172 31.633 7.22274C31.633 9.29734 31.633 9.29734 31.7579 11.364C31.9199 13.1263 31.9032 14.8985 31.9274 16.6668C31.9721 19.8672 32.0298 23.0657 32.2161 26.2621C32.2292 26.5147 32.2441 26.7673 32.2571 27.0279C32.3298 28.1756 32.4303 29.2158 32.7861 30.3019C32.8476 30.4988 32.9091 30.6957 32.9724 30.8986C33.0954 30.9642 33.2183 31.0299 33.345 31.0975C33.345 31.2288 33.345 31.3601 33.345 31.4953C33.5238 31.5331 33.5238 31.5331 33.7064 31.5709C33.8331 31.6107 33.9597 31.6524 34.0901 31.6942C34.1516 31.8255 34.2131 31.9568 34.2764 32.092C33.7194 32.3904 33.1475 32.3188 32.5365 32.3168C32.3335 32.3168 32.3335 32.3168 32.1267 32.3188C31.8417 32.3188 31.5548 32.3168 31.2698 32.3168C30.832 32.3168 30.3942 32.3168 29.9565 32.3188C29.6789 32.3188 29.4014 32.3168 29.1238 32.3168C28.9934 32.3168 28.8611 32.3188 28.727 32.3188C27.7993 32.3128 27.7993 32.3128 27.3839 32.092C27.3839 31.9608 27.3839 31.8295 27.3839 31.6942C27.5292 31.6823 27.6764 31.6703 27.8272 31.6564C28.3507 31.551 28.3507 31.551 28.537 31.0478C28.5873 30.8668 28.6357 30.6858 28.6879 30.5008C28.7512 30.3536 28.8164 30.2044 28.8816 30.0532C29.0977 29.3949 29.1033 28.8598 29.0958 28.1636C29.094 27.9349 29.0921 27.7061 29.0921 27.4714C29.0698 26.7156 29.0698 26.7156 28.971 25.9458C28.8406 24.7245 28.8146 23.5013 28.781 22.274C28.7736 22.0214 28.7661 21.7688 28.7587 21.5082C28.7345 20.7066 28.7102 19.903 28.6879 19.1014C28.6655 18.2999 28.6413 17.5002 28.6171 16.6987C28.6022 16.2034 28.5891 15.7061 28.5742 15.2088C28.537 13.9179 28.4643 12.635 28.3582 11.3481C28.3004 10.6121 28.2743 9.87815 28.2557 9.1402C28.252 8.99699 28.2482 8.85577 28.2445 8.70858C28.2333 8.26501 28.2222 7.82145 28.211 7.37789C28.2017 7.07157 28.1942 6.76725 28.1868 6.46093C28.1663 5.72299 28.1477 4.98306 28.129 4.24511C27.6968 5.14815 27.287 6.05118 26.9293 6.99201C26.5586 7.9587 26.1619 8.90947 25.7539 9.85826C25.5117 10.4311 25.2882 11.0099 25.0665 11.5927C24.748 12.4202 24.3996 13.2198 24.0196 14.0154C23.606 14.8826 23.2428 15.7499 22.9149 16.6569C22.5591 17.6315 22.1754 18.5962 21.7953 19.5609C21.6724 19.5609 21.5494 19.5609 21.4228 19.5609C21.4023 19.734 21.3836 19.909 21.3632 20.086C21.2309 20.7782 21.026 21.2655 20.713 21.8861C20.3367 22.6579 20.0107 23.4117 19.7462 24.2352C19.4183 25.2496 18.9862 26.1805 18.526 27.1333C18.2019 27.8315 17.9392 28.5435 17.6896 29.2755C17.4959 29.7429 17.2518 30.105 16.9519 30.5008C16.1919 30.2303 16.0466 29.7191 15.7057 28.997C15.6088 28.7981 15.6088 28.7981 15.5101 28.5933C15.3052 28.1696 15.104 27.7439 14.9028 27.3183C14.8376 27.181 14.7724 27.0458 14.7072 26.9045C14.1744 25.7807 13.651 24.6529 13.1294 23.5231C12.6655 22.5246 12.1886 21.5341 11.695 20.5495C11.0597 19.2824 10.4487 18.0075 9.88428 16.7006C9.28444 15.3123 8.63244 13.9557 7.95809 12.6052C7.38806 11.4634 6.84038 10.3118 6.30574 9.15214C5.80091 8.06611 5.25882 7.00594 4.70369 5.94974C4.47084 5.43855 4.47084 5.43855 4.47084 4.84183C4.34789 4.84183 4.22494 4.84183 4.09827 4.84183C3.89336 7.54298 3.85237 10.2421 3.80953 12.9513C3.80021 13.538 3.78904 14.1228 3.77786 14.7096C3.776 14.8846 3.77227 15.0597 3.77041 15.2407C3.74992 16.3187 3.68099 17.3829 3.58226 18.457C3.52637 19.1233 3.50029 19.7897 3.4798 20.46C3.47608 20.5913 3.47235 20.7225 3.46863 20.8558C3.45559 21.2735 3.44627 21.6912 3.43509 22.1089C3.43137 22.2521 3.42764 22.3953 3.42392 22.5445C3.40529 23.2685 3.38852 23.9926 3.37176 24.7186C3.36058 25.2238 3.34754 25.731 3.33264 26.2362C3.31587 26.8369 3.30469 27.4376 3.29538 28.0383C3.28979 28.2114 3.2842 28.3824 3.27861 28.5595C3.26744 29.7032 3.47794 30.3576 4.09827 31.2964C4.48574 31.5888 4.48574 31.5888 4.84341 31.6942C4.84341 31.8255 4.84341 31.9568 4.84341 32.092C4.38142 32.3387 4.06846 32.3168 3.55059 32.3168C3.36989 32.3168 3.18734 32.3188 2.99919 32.3188C2.80918 32.3168 2.6173 32.3168 2.4217 32.3148C2.13483 32.3168 2.13483 32.3168 1.84422 32.3188C1.66166 32.3188 1.4791 32.3168 1.29282 32.3168C1.12516 32.3168 0.957505 32.3168 0.78426 32.3168C0.37257 32.2909 0.37257 32.2909 0 32.092C0 31.9608 0 31.8295 0 31.6942C0.253348 31.5411 0.253348 31.5411 0.512284 31.3839C1.31145 30.8369 1.57783 30.0473 1.86285 29.1084C1.95785 28.4819 1.96717 27.8712 1.96344 27.2367C1.96531 27.0617 1.96717 26.8866 1.96903 26.7056C1.97276 26.3337 1.97648 25.9597 1.97648 25.5878C1.98021 24.5933 1.99511 23.6007 2.01001 22.6062C2.01188 22.4093 2.0156 22.2123 2.01747 22.0095C2.03982 20.4819 2.12179 18.9702 2.23542 17.4485C2.43474 14.6042 2.50181 11.7578 2.55769 8.90947C2.56701 8.38038 2.58005 7.85129 2.59122 7.3222C2.60985 6.57431 2.62289 5.82443 2.63407 5.07654C2.64152 4.84979 2.64711 4.62502 2.6527 4.39031C2.67133 2.90448 2.54093 2.0094 1.54803 0.901493C1.40645 0.75828 1.26487 0.613079 1.11771 0.465888C1.11771 0.400249 1.11771 0.33461 1.11771 0.266981Z" fill="#020202"/>
<path d="M137.232 0.0339611C137.376 0.0339611 137.519 0.031972 137.668 0.031972C137.972 0.0299829 138.275 0.0299829 138.581 0.0299829C139.047 0.0299829 139.512 0.0260048 139.98 0.0220267C140.274 0.0220267 140.57 0.0220267 140.865 0.0220267C141.004 0.0200376 141.144 0.0180485 141.289 0.0180485C142.279 0.0220267 142.279 0.0220267 142.694 0.465588C142.607 0.533216 142.519 0.600845 142.428 0.670462C142.312 0.765937 142.197 0.863401 142.076 0.962855C141.962 1.05435 141.846 1.14784 141.729 1.24132C140.844 2.32735 140.747 3.63417 140.759 5.00861C140.757 5.26122 140.757 5.26122 140.755 5.51781C140.753 6.06879 140.755 6.62175 140.757 7.17272C140.757 7.56058 140.755 7.94845 140.755 8.33433C140.753 9.14587 140.755 9.95741 140.759 10.7689C140.76 11.8013 140.759 12.8336 140.755 13.8659C140.753 14.6655 140.755 15.4671 140.755 16.2667C140.757 16.6466 140.755 17.0265 140.755 17.4065C140.746 20.5233 140.833 23.6422 142.508 26.3234C142.508 26.5204 142.508 26.7173 142.508 26.9202C142.692 26.9858 142.877 27.0514 143.067 27.1191C143.067 27.2503 143.067 27.3816 143.067 27.5169C143.19 27.5169 143.313 27.5169 143.439 27.5169C143.927 27.9883 143.927 27.9883 144.371 28.5114C144.371 28.6427 144.371 28.774 144.371 28.9092C144.549 28.9769 144.549 28.9769 144.73 29.0465C145.302 29.307 145.302 29.307 145.624 29.5338C147.686 30.952 150.389 31.1151 152.753 30.6994C154.415 30.2956 156.045 29.3946 157.411 28.3125C157.472 28.1812 157.534 28.0499 157.597 27.9147C157.72 27.9147 157.843 27.9147 157.969 27.9147C158.022 27.7973 158.074 27.678 158.128 27.5587C158.32 27.1628 158.532 26.8227 158.772 26.4607C160.333 23.7317 160.339 20.9947 160.315 17.8938C160.315 17.4482 160.315 17.0047 160.315 16.5611C160.315 15.6382 160.311 14.7133 160.305 13.7903C160.298 12.6068 160.296 11.4233 160.298 10.2399C160.298 9.32489 160.296 8.4119 160.294 7.49892C160.292 7.06133 160.292 6.62572 160.292 6.18813C160.291 5.57948 160.287 4.97281 160.283 4.36416C160.283 4.18514 160.283 4.00414 160.285 3.81915C160.27 2.68737 160.128 1.96932 159.346 1.14585C159.249 1.0643 159.152 0.982745 159.052 0.901194C158.878 0.755992 158.705 0.612779 158.528 0.465588C158.59 0.33431 158.651 0.203032 158.715 0.0677752C160.128 0.0677752 161.542 0.0677752 162.999 0.0677752C162.999 0.664495 162.999 0.664495 162.742 1.00065C162.44 1.26121 162.44 1.26121 162.068 1.26121C161.541 2.53621 161.479 3.76744 161.473 5.14785C161.472 5.31294 161.47 5.48002 161.468 5.65108C161.464 6.0111 161.462 6.37112 161.46 6.73114C161.455 7.30399 161.451 7.87685 161.446 8.44771C161.434 9.667 161.425 10.8843 161.416 12.1016C161.405 13.5079 161.391 14.9142 161.378 16.3204C161.375 16.8794 161.371 17.4403 161.367 17.9992C161.334 22.0092 161.205 25.4522 158.715 28.7103C158.592 28.7103 158.469 28.7103 158.342 28.7103C158.29 28.8297 158.24 28.949 158.186 29.0743C157.576 30.2837 156.358 30.9202 155.268 31.5567C155.151 31.6263 155.034 31.6959 154.912 31.7675C154.13 32.2091 153.458 32.3881 152.567 32.4895C152.506 32.5552 152.444 32.6208 152.381 32.6884C149.587 33.2275 146.241 33.2056 143.812 31.495C143.501 31.3598 143.191 31.2265 142.88 31.0972C142.696 30.9659 142.512 30.8346 142.321 30.6994C142.321 30.5681 142.321 30.4368 142.321 30.3016C142.212 30.2817 142.104 30.2638 141.992 30.2439C141.483 30.0708 141.248 29.8262 140.878 29.4184C140.762 29.2951 140.649 29.1738 140.531 29.0465C140.272 28.7103 140.272 28.7103 140.272 28.3125C140.149 28.3125 140.026 28.3125 139.9 28.3125C138.162 25.3906 137.456 22.5442 137.445 19.0713C137.445 18.8903 137.443 18.7093 137.441 18.5223C137.439 18.1325 137.437 17.7426 137.435 17.3528C137.432 16.7342 137.428 16.1156 137.422 15.4989C137.409 13.7426 137.398 11.9863 137.389 10.2319C137.383 9.15582 137.376 8.07973 137.366 7.00365C137.363 6.5939 137.361 6.18415 137.359 5.7744C137.357 5.20354 137.353 4.63069 137.348 4.05983C137.348 3.89076 137.348 3.72169 137.348 3.54864C137.338 2.70726 137.312 2.01308 136.919 1.26121C136.556 1.14386 136.556 1.14386 136.174 1.06231C135.848 0.65256 135.848 0.65256 135.615 0.266682C135.986 -0.131131 136.724 0.0339611 137.232 0.0339611Z" fill="#020202"/>
<path d="M106.183 0.0664062C106.62 0.10022 106.62 0.10022 107.114 0.265313C107.369 0.716831 107.369 0.716831 107.569 1.30957C107.975 2.46522 108.446 3.56716 108.951 4.67905C109.163 5.23798 109.163 5.23798 109.163 6.0336C109.286 6.0336 109.409 6.0336 109.536 6.0336C109.62 6.25439 109.62 6.25439 109.707 6.47915C110.244 7.86951 110.808 9.24197 111.399 10.6085C111.879 11.7203 112.349 12.8322 112.785 13.966C113.28 15.2509 113.828 16.508 114.379 17.7691C114.91 18.9944 115.415 20.2196 115.873 21.4767C116.102 22.0675 116.374 22.6244 116.665 23.1813C116.801 23.5374 116.801 23.5374 116.801 24.333C116.924 24.333 117.047 24.333 117.173 24.333C117.229 24.4802 117.287 24.6274 117.345 24.7786C117.82 26.0058 118.312 27.2171 118.846 28.4166C119.038 28.9118 119.141 29.3753 119.223 29.9024C119.345 29.9024 119.468 29.9024 119.595 29.9024C119.595 30.0993 119.595 30.2962 119.595 30.4991C119.78 30.5647 119.964 30.6304 120.154 30.698C120.154 30.8293 120.154 30.9606 120.154 31.0958C120.331 31.1575 120.508 31.2191 120.69 31.2828C121.272 31.4936 121.272 31.4936 121.644 31.6925C121.644 31.8238 121.644 31.9551 121.644 32.0904C121.095 32.3847 120.599 32.3151 119.984 32.3151C119.858 32.3151 119.731 32.3151 119.601 32.3171C119.332 32.3171 119.064 32.3151 118.796 32.3151C118.386 32.3151 117.974 32.3151 117.565 32.3171C117.304 32.3171 117.043 32.3151 116.784 32.3151C116.426 32.3151 116.426 32.3151 116.063 32.3151C115.497 32.2893 115.497 32.2893 115.124 32.0904C115.124 31.9591 115.124 31.8278 115.124 31.6925C115.247 31.6229 115.37 31.5533 115.497 31.4817C115.938 31.0242 115.938 30.887 115.963 30.2505C115.929 29.4668 115.745 28.9496 115.337 28.2873C115.089 27.8497 114.923 27.4081 114.752 26.9307C114.474 26.1649 114.165 25.4349 113.807 24.7089C113.602 24.2634 113.435 23.7999 113.261 23.3385C108.159 23.3385 103.057 23.3385 97.7997 23.3385C96.805 25.5921 96.805 25.5921 95.9201 27.8715C95.7469 28.3211 95.5457 28.7408 95.3315 29.1684C95.0446 29.7731 94.8453 30.2127 95.0055 30.8969C95.4526 31.3624 95.4526 31.3624 95.9369 31.6925C95.8754 31.8895 95.8139 32.0864 95.7506 32.2893C95.1377 32.2952 94.5249 32.2992 93.9101 32.3012C93.6493 32.3052 93.6493 32.3052 93.3829 32.3072C93.2153 32.3072 93.0476 32.3072 92.8762 32.3092C92.7216 32.3092 92.5689 32.3111 92.4087 32.3111C92.0249 32.2893 92.0249 32.2893 91.6523 32.0904C91.6523 31.9591 91.6523 31.8278 91.6523 31.6925C91.7585 31.6388 91.8628 31.5871 91.9709 31.5334C92.1777 31.428 92.1777 31.428 92.3863 31.3186C92.5223 31.251 92.6583 31.1814 92.798 31.1098C93.1724 30.9228 93.1724 30.9228 93.3289 30.4991C93.4519 30.4991 93.5748 30.4991 93.7015 30.4991C93.748 30.334 93.7946 30.1709 93.8412 30.0018C94.0517 29.3733 94.3069 28.8024 94.5938 28.2097C95.1657 26.9566 95.7096 25.6557 96.1232 24.333C96.2461 24.333 96.3691 24.333 96.4958 24.333C96.4808 24.1977 96.4659 24.0625 96.4492 23.9233C96.5013 23.2728 96.7118 22.9068 97.0285 22.3618C97.2781 21.8725 97.4439 21.3792 97.6135 20.8521C97.8202 20.2156 98.027 19.6368 98.3586 19.062C98.6771 18.505 98.8802 17.9521 99.0814 17.3335C99.3478 16.514 99.6626 15.7562 100.035 14.9844C100.564 13.8864 100.972 12.7726 101.339 11.603C101.462 11.603 101.585 11.603 101.712 11.603C101.732 11.4319 101.751 11.2609 101.771 11.0838C101.905 10.3698 102.123 9.81879 102.421 9.16638C102.768 8.39065 103.1 7.61889 103.388 6.81729C103.66 6.07139 103.977 5.36528 104.32 4.65319C104.774 3.70242 105.134 2.74966 105.46 1.74319C105.659 1.15443 105.903 0.617377 106.183 0.0664062ZM105.437 4.84016C104.335 7.15742 103.236 9.47071 102.436 11.9312C102.285 12.3549 102.116 12.7189 101.898 13.1067C101.511 13.8168 101.242 14.5229 100.967 15.2887C100.799 15.7323 100.613 16.152 100.408 16.5756C100.054 17.3096 99.7725 18.0615 99.4912 18.8293C99.1987 19.599 98.8672 20.3489 98.5356 21.1008C98.3344 21.5284 98.3344 21.5284 98.3586 21.9461C98.9063 22.2385 99.4558 22.1709 100.056 22.1669C100.192 22.1669 100.329 22.1669 100.469 22.1669C100.92 22.1669 101.373 22.1669 101.824 22.1649C102.136 22.1649 102.449 22.1629 102.762 22.1629C103.586 22.1629 104.409 22.1609 105.233 22.159C106.075 22.157 106.915 22.155 107.755 22.155C109.403 22.153 111.054 22.149 112.703 22.145C112.235 20.0426 111.21 18.0396 110.353 16.0903C110.253 15.8616 110.152 15.6308 110.048 15.3941C109.955 15.1833 109.862 14.9725 109.765 14.7557C109.579 14.2962 109.443 13.8825 109.349 13.3931C109.226 13.3931 109.104 13.3931 108.977 13.3931C108.954 13.2499 108.93 13.1067 108.908 12.9575C108.791 12.4006 108.625 11.9292 108.411 11.4061C108.334 11.2171 108.258 11.0301 108.178 10.8352C108.055 10.5388 108.055 10.5388 107.93 10.2345C107.846 10.0336 107.762 9.83073 107.677 9.62188C107.015 8.0167 106.332 6.42346 105.624 4.84016C105.562 4.84016 105.501 4.84016 105.437 4.84016Z" fill="#020202"/>
<path d="M48.9922 0.265625C51.2053 0.265625 53.4183 0.265625 55.6984 0.265625C55.1396 1.26016 55.1396 1.26016 54.7558 1.65797C54.0852 2.39591 53.9753 3.1617 53.9716 4.16419C53.9697 4.49637 53.9697 4.49637 53.9679 4.83451C53.9679 5.07717 53.9679 5.31785 53.9679 5.56648C53.966 5.82108 53.966 6.07767 53.9641 6.34023C53.9604 7.04038 53.9604 7.74053 53.9604 8.44068C53.9585 8.87828 53.9585 9.31587 53.9567 9.75347C53.9548 11.2831 53.953 12.8126 53.953 14.3403C53.953 15.7624 53.9492 17.1866 53.9436 18.6088C53.9381 19.8321 53.9362 21.0553 53.9362 22.2786C53.9362 23.0086 53.9362 23.7386 53.9325 24.4686C53.9269 25.2821 53.9287 26.0976 53.9306 26.9111C53.9287 27.2712 53.9287 27.2712 53.925 27.6391C53.9343 29.0156 54.061 29.9325 54.767 31.0961C55.2514 31.4661 55.2514 31.4661 55.6984 31.6929C55.6984 31.8241 55.6984 31.9554 55.6984 32.0907C55.1377 32.389 54.6217 32.3154 53.9995 32.3154C53.8673 32.3154 53.7369 32.3154 53.6027 32.3174C53.3252 32.3174 53.0476 32.3154 52.7719 32.3154C52.3472 32.3154 51.9224 32.3154 51.4977 32.3174C51.2295 32.3174 50.9612 32.3154 50.6911 32.3154C50.4471 32.3154 50.2012 32.3154 49.9478 32.3154C49.3648 32.2896 49.3648 32.2896 48.9922 32.0907C48.9922 31.9594 48.9922 31.8281 48.9922 31.6929C49.3629 31.4263 49.7355 31.1598 50.1099 30.8972C50.5346 30.217 50.5309 29.9703 50.5328 29.1707C50.5346 28.936 50.5365 28.6993 50.5384 28.4566C50.5402 28.1981 50.5402 27.9395 50.5402 27.6749C50.5402 27.3985 50.5421 27.124 50.5439 26.8495C50.5477 26.1036 50.5495 25.3557 50.5514 24.6098C50.5514 24.1424 50.5533 23.6769 50.5533 23.2095C50.5588 21.5824 50.5607 19.9554 50.5626 18.3283C50.5626 16.8107 50.5682 15.293 50.5756 13.7773C50.5831 12.4745 50.5849 11.1717 50.5849 9.86883C50.5849 9.09111 50.5868 8.31338 50.5924 7.53566C50.598 6.80368 50.598 6.07171 50.5942 5.33973C50.5942 4.94391 50.598 4.54808 50.6017 4.15226C50.6222 2.80168 50.6222 2.80168 50.0447 1.652C49.8826 1.52271 49.7187 1.39343 49.551 1.26016C49.3666 0.931962 49.1822 0.603766 48.9922 0.265625Z" fill="#020202"/>
<path d="M74.2817 7.09121C75.0399 7.69788 75.3175 8.26277 75.4702 9.25532C75.528 9.89182 75.528 9.89182 75.8186 10.411C75.9266 10.1842 75.9266 10.1842 76.0365 9.95348C76.1818 9.65711 76.1818 9.65711 76.3309 9.35477C76.4259 9.15785 76.5209 8.96093 76.6196 8.76004C76.9437 8.20907 77.1468 7.92861 77.6814 7.62627C78.244 7.5666 78.244 7.5666 78.8457 7.58848C79.1475 7.59643 79.1475 7.59643 79.4549 7.60439C79.6076 7.61235 79.7604 7.61831 79.9168 7.62627C79.9168 7.75755 79.9168 7.88883 79.9168 8.02408C80.1013 8.08972 80.2857 8.15536 80.4757 8.22299C81.055 9.10614 81.0793 9.7486 80.934 10.771C80.8241 11.3319 80.6694 11.865 80.4757 12.4C80.6601 12.3006 80.6601 12.3006 80.8483 12.2011C81.422 12.1056 81.9511 12.0917 82.5248 12.2011C83.2737 12.8535 83.419 13.1479 83.5736 14.1643C83.501 15.2683 82.9552 16.1136 82.2398 16.8834C81.1799 17.866 80.539 18.0171 79.1717 17.9694C79.2276 18.1086 79.2835 18.2479 79.3412 18.3911C79.9411 19.9903 79.9802 20.8257 79.5331 22.4826C79.0581 23.3478 78.5477 23.7576 77.6814 24.1355C76.7854 24.3623 76.1669 24.1753 75.3883 23.676C74.9225 23.3399 74.5295 22.9779 74.142 22.5443C74.0116 22.59 73.8812 22.6338 73.7452 22.6815C72.607 23.0495 71.765 23.2623 70.6026 22.9421C69.999 22.5224 69.6991 22.1902 69.2986 21.5497C69.1887 20.5592 69.1831 19.6482 69.5538 18.7272C69.6544 18.6079 69.755 18.4886 69.8575 18.3672C69.9804 18.3672 70.1034 18.3672 70.23 18.3672C70.2915 18.1703 70.353 17.9734 70.4163 17.7705C70.5393 17.7705 70.6622 17.7705 70.7889 17.7705C70.7889 17.6392 70.7889 17.5079 70.7889 17.3727C71.1615 17.0485 71.1615 17.0485 71.534 16.776C71.4111 16.7302 71.2863 16.6845 71.1596 16.6367C70.1518 16.2389 69.4309 15.8988 68.7398 14.9858C68.5982 14.8088 68.4547 14.6318 68.3094 14.4508C67.881 13.5537 67.8176 12.7899 67.9946 11.8033C68.4491 11.1051 68.7398 10.8704 69.4961 10.6218C70.0736 10.6079 70.2971 10.7173 70.7889 11.0077C70.7796 10.7232 70.7796 10.7232 70.7684 10.4328C70.7647 10.1842 70.7591 9.93359 70.7535 9.677C70.7442 9.30703 70.7442 9.30703 70.7349 8.92911C70.7926 8.17525 70.9193 7.8212 71.3477 7.22846C72.3686 6.48455 73.1808 6.5303 74.2817 7.09121ZM72.1171 8.20907C71.7613 9.24139 71.7296 10.1086 72.0966 11.1469C72.6797 12.5114 72.6797 12.5114 73.7806 13.3448C74.1569 13.4324 74.1569 13.4324 74.5146 13.1957C74.5407 12.5989 74.5574 12.0022 74.5723 11.4055C74.5798 11.2384 74.5891 11.0713 74.5966 10.8983C74.6189 9.66705 74.3898 8.74214 73.5832 7.82518C72.8753 7.62826 72.6275 7.64417 72.1171 8.20907ZM77.9031 9.09221C77.6442 9.40251 77.6442 9.40251 77.6814 9.81424C77.497 9.87988 77.3126 9.94552 77.1226 10.0131C77.1226 10.2757 77.1226 10.5383 77.1226 10.8088C76.9996 10.8088 76.8767 10.8088 76.75 10.8088C76.7351 11.1986 76.7239 11.5865 76.7146 11.9764C76.709 12.1932 76.7016 12.41 76.696 12.6347C76.7127 12.8197 76.7314 13.0047 76.75 13.1957C77.2474 13.6372 77.2474 13.6372 77.6703 13.5676C78.4862 13.1996 78.9985 12.4438 79.358 11.6044C79.5499 10.5741 79.6933 9.7486 79.1717 8.81971C78.488 8.75407 78.488 8.75407 77.9031 9.09221ZM69.1123 12.4C69.0453 13.1618 69.0453 13.494 69.4737 14.1285C69.6004 14.2797 69.7271 14.4309 69.8575 14.588C69.9189 14.7849 69.9804 14.9818 70.0437 15.1847C70.6976 15.4294 70.6976 15.4294 71.3477 15.5825C71.5974 15.2643 71.5974 15.2643 71.7203 14.7869C71.48 14.045 71.48 14.045 71.1615 13.3946C71.0385 13.3946 70.9156 13.3946 70.7889 13.3946C70.7423 13.2712 70.6957 13.1479 70.6492 13.0206C70.2412 12.2807 69.8686 12.1295 69.1123 12.4ZM75.2597 12.7978C75.1983 13.2573 75.1368 13.7168 75.0734 14.1902C75.3808 14.1902 75.6882 14.1902 76.0049 14.1902C75.9434 13.7964 75.8819 13.4025 75.8186 12.9967C75.6342 12.9311 75.4497 12.8655 75.2597 12.7978ZM81.0681 13.5716C80.9619 13.6611 80.8539 13.7506 80.744 13.8421C80.6359 13.9296 80.5279 14.0151 80.4161 14.1066C80.2615 14.2459 80.2615 14.2459 80.1031 14.3891C79.9467 14.5243 79.9467 14.5244 79.7864 14.6636C79.4604 15.0972 79.4865 15.3697 79.5089 15.9187C79.5145 16.0778 79.5201 16.2389 79.5238 16.404C79.5312 16.5273 79.5368 16.6487 79.5443 16.776C80.5595 16.5253 81.5375 16.1176 82.1523 15.1847C82.2137 14.6357 82.1877 14.1484 82.1523 13.5935C81.707 13.4224 81.5021 13.3448 81.0681 13.5716ZM72.838 14.3891C72.838 14.8486 72.838 15.308 72.838 15.7814C73.4602 15.6701 73.9613 15.5129 74.5146 15.1847C74.4531 14.9878 74.3916 14.7909 74.3283 14.588C73.8365 14.5224 73.3447 14.4567 72.838 14.3891ZM76.1911 14.3891C76.2508 15.0992 76.3104 15.493 76.7388 16.0539C77.089 16.4179 77.089 16.4179 77.4951 16.3782C77.4951 16.5094 77.4951 16.6407 77.4951 16.776C77.9571 16.9729 77.9571 16.9729 78.4266 17.1738C78.4266 16.3861 78.4266 15.5984 78.4266 14.7869C78.162 14.7571 77.8957 14.7292 77.6237 14.6994C77.1021 14.6437 76.6923 14.5661 76.1911 14.3891ZM75.2597 15.1847C74.8182 15.7118 74.8182 15.7118 74.7009 16.3782C74.5705 16.4219 74.4401 16.4677 74.3041 16.5154C73.6539 16.8317 73.1938 17.2772 72.6517 17.7705C72.2102 18.0311 72.2102 18.0311 71.9066 18.1683C71.9066 18.2996 71.9066 18.4309 71.9066 18.5661C71.7948 18.6198 71.6831 18.6716 71.5694 18.7272C71.1466 18.9719 70.9007 19.1609 70.6026 19.5607C70.5355 20.0142 70.5355 20.0142 70.5672 20.4935C70.5728 20.6527 70.5784 20.8138 70.5821 20.9789C70.5896 21.1022 70.5951 21.2235 70.6026 21.3508C70.7255 21.3508 70.8485 21.3508 70.9752 21.3508C70.9752 21.4821 70.9752 21.6134 70.9752 21.7486C71.9886 21.8381 72.5269 21.6512 73.4099 21.13C73.911 20.8834 74.3451 20.8953 74.8872 20.953C74.9337 21.1698 74.9803 21.3866 75.0269 21.6114C75.2746 22.3911 75.3622 22.5443 76.0049 22.9421C76.4669 23.0435 76.4669 23.0435 76.9475 23.0276C77.1077 23.0316 77.2679 23.0356 77.4318 23.0395C77.8863 22.9799 77.8863 22.9799 78.1937 22.6139C78.6874 21.6233 78.6799 20.6328 78.4266 19.5607C77.9664 18.8307 77.3554 18.2717 76.7351 17.7009C75.9583 16.947 75.595 16.2906 75.446 15.1847C75.3845 15.1847 75.3231 15.1847 75.2597 15.1847Z" fill="#020202"/>
<path d="M74.2817 7.09121C75.0399 7.69788 75.3175 8.26277 75.4702 9.25532C75.528 9.89182 75.528 9.89182 75.8186 10.411C75.9266 10.1842 75.9266 10.1842 76.0365 9.95348C76.1818 9.65711 76.1818 9.65711 76.3309 9.35477C76.4259 9.15785 76.5209 8.96093 76.6196 8.76004C76.9437 8.20907 77.1468 7.92861 77.6814 7.62627C78.244 7.5666 78.244 7.5666 78.8457 7.58848C79.1475 7.59643 79.1475 7.59643 79.4549 7.60439C79.6076 7.61235 79.7604 7.61831 79.9168 7.62627C79.9168 7.75755 79.9168 7.88883 79.9168 8.02408C80.1013 8.08972 80.2857 8.15536 80.4757 8.22299C81.055 9.10614 81.0793 9.7486 80.934 10.771C80.8241 11.3319 80.6694 11.865 80.4757 12.4C80.6601 12.3006 80.6601 12.3006 80.8483 12.2011C81.422 12.1056 81.9511 12.0917 82.5248 12.2011C83.2737 12.8535 83.419 13.1479 83.5736 14.1643C83.501 15.2683 82.9552 16.1136 82.2398 16.8834C81.1799 17.866 80.539 18.0171 79.1717 17.9694C79.2276 18.1086 79.2835 18.2479 79.3412 18.3911C79.9411 19.9903 79.9802 20.8257 79.5331 22.4826C79.0581 23.3478 78.5477 23.7576 77.6814 24.1355C76.7854 24.3623 76.1669 24.1753 75.3883 23.676C74.9225 23.3399 74.5295 22.9779 74.142 22.5443C74.0116 22.59 73.8812 22.6338 73.7452 22.6815C72.607 23.0495 71.765 23.2623 70.6026 22.9421C69.999 22.5224 69.6991 22.1902 69.2986 21.5497C69.1887 20.5592 69.1831 19.6482 69.5538 18.7272C69.6544 18.6079 69.755 18.4886 69.8575 18.3672C69.9804 18.3672 70.1034 18.3672 70.23 18.3672C70.2915 18.1703 70.353 17.9734 70.4163 17.7705C70.5393 17.7705 70.6622 17.7705 70.7889 17.7705C70.7889 17.6392 70.7889 17.5079 70.7889 17.3727C71.1615 17.0485 71.1615 17.0485 71.534 16.776C71.4111 16.7302 71.2863 16.6845 71.1596 16.6367C70.1518 16.2389 69.4309 15.8988 68.7398 14.9858C68.5982 14.8088 68.4547 14.6318 68.3094 14.4508C67.881 13.5537 67.8176 12.7899 67.9946 11.8033C68.4491 11.1051 68.7398 10.8704 69.4961 10.6218C70.0736 10.6079 70.2971 10.7173 70.7889 11.0077C70.7796 10.7232 70.7796 10.7232 70.7684 10.4328C70.7647 10.1842 70.7591 9.93359 70.7535 9.677C70.7442 9.30703 70.7442 9.30703 70.7349 8.92911C70.7926 8.17525 70.9193 7.8212 71.3477 7.22846C72.3686 6.48455 73.1808 6.5303 74.2817 7.09121ZM72.1171 8.20907C71.7613 9.24139 71.7296 10.1086 72.0966 11.1469C72.6797 12.5114 72.6797 12.5114 73.7806 13.3448C74.1569 13.4324 74.1569 13.4324 74.5146 13.1957C74.5407 12.5989 74.5574 12.0022 74.5723 11.4055C74.5798 11.2384 74.5891 11.0713 74.5966 10.8983C74.6189 9.66705 74.3898 8.74214 73.5832 7.82518C72.8753 7.62826 72.6275 7.64417 72.1171 8.20907ZM77.9031 9.09221C77.6442 9.40251 77.6442 9.40251 77.6814 9.81424C77.497 9.87988 77.3126 9.94552 77.1226 10.0131C77.1226 10.2757 77.1226 10.5383 77.1226 10.8088C76.9996 10.8088 76.8767 10.8088 76.75 10.8088C76.7351 11.1986 76.7239 11.5865 76.7146 11.9764C76.709 12.1932 76.7016 12.41 76.696 12.6347C76.7127 12.8197 76.7314 13.0047 76.75 13.1957C77.2474 13.6372 77.2474 13.6372 77.6703 13.5676C78.4862 13.1996 78.9985 12.4438 79.358 11.6044C79.5499 10.5741 79.6933 9.7486 79.1717 8.81971C78.488 8.75407 78.488 8.75407 77.9031 9.09221ZM69.1123 12.4C69.0453 13.1618 69.0453 13.494 69.4737 14.1285C69.6004 14.2797 69.7271 14.4309 69.8575 14.588C69.9189 14.7849 69.9804 14.9818 70.0437 15.1847C70.6976 15.4294 70.6976 15.4294 71.3477 15.5825C71.5974 15.2643 71.5974 15.2643 71.7203 14.7869C71.48 14.045 71.48 14.045 71.1615 13.3946C71.0385 13.3946 70.9156 13.3946 70.7889 13.3946C70.7423 13.2712 70.6957 13.1479 70.6492 13.0206C70.2412 12.2807 69.8686 12.1295 69.1123 12.4ZM75.2597 12.7978C75.1983 13.2573 75.1368 13.7168 75.0734 14.1902C75.3808 14.1902 75.6882 14.1902 76.0049 14.1902C75.9434 13.7964 75.8819 13.4025 75.8186 12.9967C75.6342 12.9311 75.4497 12.8655 75.2597 12.7978ZM81.0681 13.5716C80.9619 13.6611 80.8539 13.7506 80.744 13.8421C80.6359 13.9296 80.5279 14.0151 80.4161 14.1066C80.2615 14.2459 80.2615 14.2459 80.1031 14.3891C79.9467 14.5243 79.9467 14.5244 79.7864 14.6636C79.4604 15.0972 79.4865 15.3697 79.5089 15.9187C79.5145 16.0778 79.5201 16.2389 79.5238 16.404C79.5312 16.5273 79.5368 16.6487 79.5443 16.776C80.5595 16.5253 81.5375 16.1176 82.1523 15.1847C82.2137 14.6357 82.1877 14.1484 82.1523 13.5935C81.707 13.4224 81.5021 13.3448 81.0681 13.5716ZM72.838 14.3891C72.838 14.8486 72.838 15.308 72.838 15.7814C73.4602 15.6701 73.9613 15.5129 74.5146 15.1847C74.4531 14.9878 74.3916 14.7909 74.3283 14.588C73.8365 14.5224 73.3447 14.4567 72.838 14.3891ZM76.1911 14.3891C76.2508 15.0992 76.3104 15.493 76.7388 16.0539C77.089 16.4179 77.089 16.4179 77.4951 16.3782C77.4951 16.5094 77.4951 16.6407 77.4951 16.776C77.9571 16.9729 77.9571 16.9729 78.4266 17.1738C78.4266 16.3861 78.4266 15.5984 78.4266 14.7869C78.162 14.7571 77.8957 14.7292 77.6237 14.6994C77.1021 14.6437 76.6923 14.5661 76.1911 14.3891ZM75.2597 15.1847C74.8182 15.7118 74.8182 15.7118 74.7009 16.3782C74.5705 16.4219 74.4401 16.4677 74.3041 16.5154C73.6539 16.8317 73.1938 17.2772 72.6517 17.7705C72.2102 18.0311 72.2102 18.0311 71.9066 18.1683C71.9066 18.2996 71.9066 18.4309 71.9066 18.5661C71.7948 18.6198 71.6831 18.6716 71.5694 18.7272C71.1466 18.9719 70.9007 19.1609 70.6026 19.5607C70.5355 20.0142 70.5355 20.0142 70.5672 20.4935C70.5728 20.6527 70.5784 20.8138 70.5821 20.9789C70.5896 21.1022 70.5951 21.2235 70.6026 21.3508C70.7255 21.3508 70.8485 21.3508 70.9752 21.3508C70.9752 21.4821 70.9752 21.6134 70.9752 21.7486C71.9886 21.8381 72.5269 21.6512 73.4099 21.13C73.911 20.8834 74.3451 20.8953 74.8872 20.953C74.9337 21.1698 74.9803 21.3866 75.0269 21.6114C75.2746 22.3911 75.3622 22.5443 76.0049 22.9421C76.4669 23.0435 76.4669 23.0435 76.9475 23.0276C77.1077 23.0316 77.2679 23.0356 77.4318 23.0395C77.8863 22.9799 77.8863 22.9799 78.1937 22.6139C78.6874 21.6233 78.6799 20.6328 78.4266 19.5607C77.9664 18.8307 77.3554 18.2717 76.7351 17.7009C75.9583 16.947 75.595 16.2906 75.446 15.1847C75.3845 15.1847 75.3231 15.1847 75.2597 15.1847Z" fill="#020202"/>
</svg>
