<svg width="25" height="25" viewBox="0 0 25 25" fill="none" xmlns="http://www.w3.org/2000/svg">
<path d="M24.3421 23.6842H22.3684V5.92105C22.3782 5.77715 22.3394 5.63414 22.2583 5.51487C22.1772 5.39561 22.0585 5.30698 21.9211 5.26316L17.1053 3.25V23.6842H15.7895V0.657895C15.7895 0.48341 15.7202 0.316072 15.5968 0.192693C15.4734 0.0693138 15.3061 0 15.1316 0H3.28947C3.11499 0 2.94765 0.0693138 2.82427 0.192693C2.70089 0.316072 2.63158 0.48341 2.63158 0.657895V23.6842H0.657895C0.48341 23.6842 0.316072 23.7535 0.192693 23.8769C0.0693138 24.0003 0 24.1676 0 24.3421C0 24.5166 0.0693138 24.6839 0.192693 24.8073C0.316072 24.9307 0.48341 25 0.657895 25H24.3421C24.5166 25 24.6839 24.9307 24.8073 24.8073C24.9307 24.6839 25 24.5166 25 24.3421C25 24.1676 24.9307 24.0003 24.8073 23.8769C24.6839 23.7535 24.5166 23.6842 24.3421 23.6842ZM19.0789 7.89474H20.3947C20.5692 7.89474 20.7366 7.96405 20.8599 8.08743C20.9833 8.21081 21.0526 8.37815 21.0526 8.55263C21.0493 8.72606 20.9789 8.89145 20.8562 9.01411C20.7336 9.13676 20.5682 9.20716 20.3947 9.21053H19.0789C18.9055 9.20716 18.7401 9.13676 18.6175 9.01411C18.4948 8.89145 18.4244 8.72606 18.4211 8.55263C18.4211 8.37815 18.4904 8.21081 18.6137 8.08743C18.7371 7.96405 18.9045 7.89474 19.0789 7.89474ZM19.0789 11.8421H20.3947C20.5692 11.8421 20.7366 11.9114 20.8599 12.0348C20.9833 12.1582 21.0526 12.3255 21.0526 12.5C21.0526 12.6745 20.9833 12.8418 20.8599 12.9652C20.7366 13.0886 20.5692 13.1579 20.3947 13.1579H19.0789C18.9045 13.1579 18.7371 13.0886 18.6137 12.9652C18.4904 12.8418 18.4211 12.6745 18.4211 12.5C18.4211 12.3255 18.4904 12.1582 18.6137 12.0348C18.7371 11.9114 18.9045 11.8421 19.0789 11.8421ZM19.0789 15.7895H20.3947C20.5682 15.7928 20.7336 15.8632 20.8562 15.9859C20.9789 16.1086 21.0493 16.2739 21.0526 16.4474C21.0526 16.6219 20.9833 16.7892 20.8599 16.9126C20.7366 17.0359 20.5692 17.1053 20.3947 17.1053H19.0789C18.9045 17.1053 18.7371 17.0359 18.6137 16.9126C18.4904 16.7892 18.4211 16.6219 18.4211 16.4474C18.4244 16.2739 18.4948 16.1086 18.6175 15.9859C18.7401 15.8632 18.9055 15.7928 19.0789 15.7895ZM19.0789 19.7368H20.3947C20.5692 19.7368 20.7366 19.8062 20.8599 19.9295C20.9833 20.0529 21.0526 20.2203 21.0526 20.3947C21.0526 20.5692 20.9833 20.7366 20.8599 20.8599C20.7366 20.9833 20.5692 21.0526 20.3947 21.0526H19.0789C18.9045 21.0526 18.7371 20.9833 18.6137 20.8599C18.4904 20.7366 18.4211 20.5692 18.4211 20.3947C18.4211 20.2203 18.4904 20.0529 18.6137 19.9295C18.7371 19.8062 18.9045 19.7368 19.0789 19.7368ZM10.5263 3.94737H11.8421C12.0166 3.94737 12.1839 4.01668 12.3073 4.14006C12.4307 4.26344 12.5 4.43078 12.5 4.60526C12.5 4.77975 12.4307 4.94709 12.3073 5.07046C12.1839 5.19384 12.0166 5.26316 11.8421 5.26316H10.5263C10.3518 5.26316 10.1845 5.19384 10.0611 5.07046C9.93773 4.94709 9.86842 4.77975 9.86842 4.60526C9.86842 4.43078 9.93773 4.26344 10.0611 4.14006C10.1845 4.01668 10.3518 3.94737 10.5263 3.94737ZM10.5263 7.89474H11.8421C12.0166 7.89474 12.1839 7.96405 12.3073 8.08743C12.4307 8.21081 12.5 8.37815 12.5 8.55263C12.5 8.72712 12.4307 8.89445 12.3073 9.01783C12.1839 9.14121 12.0166 9.21053 11.8421 9.21053H10.5263C10.3518 9.21053 10.1845 9.14121 10.0611 9.01783C9.93773 8.89445 9.86842 8.72712 9.86842 8.55263C9.86842 8.37815 9.93773 8.21081 10.0611 8.08743C10.1845 7.96405 10.3518 7.89474 10.5263 7.89474ZM10.5263 11.8421H11.8421C12.0166 11.8421 12.1839 11.9114 12.3073 12.0348C12.4307 12.1582 12.5 12.3255 12.5 12.5C12.5 12.6745 12.4307 12.8418 12.3073 12.9652C12.1839 13.0886 12.0166 13.1579 11.8421 13.1579H10.5263C10.3518 13.1579 10.1845 13.0886 10.0611 12.9652C9.93773 12.8418 9.86842 12.6745 9.86842 12.5C9.86842 12.3255 9.93773 12.1582 10.0611 12.0348C10.1845 11.9114 10.3518 11.8421 10.5263 11.8421ZM10.5263 15.7895H11.8421C12.0166 15.7895 12.1839 15.8588 12.3073 15.9822C12.4307 16.1055 12.5 16.2729 12.5 16.4474C12.5 16.6219 12.4307 16.7892 12.3073 16.9126C12.1839 17.0359 12.0166 17.1053 11.8421 17.1053H10.5263C10.3518 17.1053 10.1845 17.0359 10.0611 16.9126C9.93773 16.7892 9.86842 16.6219 9.86842 16.4474C9.86842 16.2729 9.93773 16.1055 10.0611 15.9822C10.1845 15.8588 10.3518 15.7895 10.5263 15.7895ZM6.5 3.94737H7.89474C8.06922 3.94737 8.23656 4.01668 8.35994 4.14006C8.48332 4.26344 8.55263 4.43078 8.55263 4.60526C8.55263 4.77975 8.48332 4.94709 8.35994 5.07046C8.23656 5.19384 8.06922 5.26316 7.89474 5.26316H6.57895C6.40446 5.26316 6.23712 5.19384 6.11375 5.07046C5.99037 4.94709 5.92105 4.77975 5.92105 4.60526C5.92105 4.43078 5.99037 4.26344 6.11375 4.14006C6.23712 4.01668 6.40446 3.94737 6.57895 3.94737H6.5ZM6.5 7.89474H7.89474C8.06922 7.89474 8.23656 7.96405 8.35994 8.08743C8.48332 8.21081 8.55263 8.37815 8.55263 8.55263C8.55263 8.72712 8.48332 8.89445 8.35994 9.01783C8.23656 9.14121 8.06922 9.21053 7.89474 9.21053H6.57895C6.40446 9.21053 6.23712 9.14121 6.11375 9.01783C5.99037 8.89445 5.92105 8.72712 5.92105 8.55263C5.92105 8.37815 5.99037 8.21081 6.11375 8.08743C6.23712 7.96405 6.40446 7.89474 6.57895 7.89474H6.5ZM6.5 11.8421H7.89474C8.06922 11.8421 8.23656 11.9114 8.35994 12.0348C8.48332 12.1582 8.55263 12.3255 8.55263 12.5C8.55263 12.6745 8.48332 12.8418 8.35994 12.9652C8.23656 13.0886 8.06922 13.1579 7.89474 13.1579H6.57895C6.40446 13.1579 6.23712 13.0886 6.11375 12.9652C5.99037 12.8418 5.92105 12.6745 5.92105 12.5C5.92105 12.3255 5.99037 12.1582 6.11375 12.0348C6.23712 11.9114 6.40446 11.8421 6.57895 11.8421H6.5ZM6.5 15.7895H7.89474C8.06922 15.7895 8.23656 15.8588 8.35994 15.9822C8.48332 16.1055 8.55263 16.2729 8.55263 16.4474C8.55263 16.6219 8.48332 16.7892 8.35994 16.9126C8.23656 17.0359 8.06922 17.1053 7.89474 17.1053H6.57895C6.40446 17.1053 6.23712 17.0359 6.11375 16.9126C5.99037 16.7892 5.92105 16.6219 5.92105 16.4474C5.92105 16.2729 5.99037 16.1055 6.11375 15.9822C6.23712 15.8588 6.40446 15.7895 6.57895 15.7895H6.5ZM9.86842 23.6842V21.0526H8.55263V23.6842H7.23684V20.3553C7.24691 20.1877 7.32065 20.0303 7.44295 19.9154C7.56526 19.8004 7.72688 19.7365 7.89474 19.7368H10.5263C10.7008 19.7368 10.8681 19.8062 10.9915 19.9295C11.1149 20.0529 11.1842 20.2203 11.1842 20.3947V23.6842H9.86842Z" fill="black" fill-opacity="0.8"/>
</svg>
