<svg width="30" height="29" viewBox="0 0 30 29" fill="none" xmlns="http://www.w3.org/2000/svg">
<path d="M15.15 24.6304L15 24.7865L14.835 24.6304C7.71 17.9044 3 13.4568 3 8.94675C3 5.82562 5.25 3.48478 8.25 3.48478C10.56 3.48478 12.81 5.04534 13.605 7.16771H16.395C17.19 5.04534 19.44 3.48478 21.75 3.48478C24.75 3.48478 27 5.82562 27 8.94675C27 13.4568 22.29 17.9044 15.15 24.6304ZM21.75 0.363647C19.14 0.363647 16.635 1.6277 15 3.60962C13.365 1.6277 10.86 0.363647 8.25 0.363647C3.63 0.363647 0 4.12461 0 8.94675C0 14.8301 5.1 19.6522 12.825 26.9401L15 29L17.175 26.9401C24.9 19.6522 30 14.8301 30 8.94675C30 4.12461 26.37 0.363647 21.75 0.363647Z" fill="#262626"/>
</svg>
