<svg width="163" height="33" viewBox="0 0 163 33" fill="none" xmlns="http://www.w3.org/2000/svg">
<path d="M1.11771 0.266249C1.90942 0.232435 2.70113 0.210555 3.49284 0.190664C3.71825 0.180719 3.94179 0.170774 4.17465 0.160828C4.78752 0.150883 5.35569 0.15685 5.96112 0.266249C6.44546 0.771472 6.44546 0.771472 6.70626 1.45969C6.81617 1.70037 6.92794 1.94303 7.03971 2.18371C7.15334 2.45223 7.26884 2.72076 7.38061 2.98928C8.07731 4.6044 8.84295 6.17576 9.62534 7.74513C10.0799 8.65812 10.5158 9.57905 10.9442 10.506C11.097 10.8342 11.2516 11.1604 11.41 11.4846C11.9222 12.5368 11.9222 12.5368 11.9222 13.1952C12.0452 13.1952 12.1681 13.1952 12.2948 13.1952C12.3563 13.3424 12.4159 13.4876 12.4792 13.6387C12.5612 13.8337 12.6413 14.0266 12.7251 14.2275C12.8052 14.4185 12.8853 14.6094 12.9673 14.8083C13.2132 15.3533 13.4908 15.8605 13.7851 16.3777C13.9136 16.6979 14.0422 17.0201 14.167 17.3424C14.6308 18.4662 15.1673 19.5562 15.7001 20.6442C16.2068 21.6885 16.2068 21.6885 16.2068 22.3449C16.3297 22.3449 16.4527 22.3449 16.5794 22.3449C16.9575 23.0868 17.1382 23.4727 17.1382 24.3339C17.2612 24.3339 17.3841 24.3339 17.5108 24.3339C17.6337 24.5965 17.7567 24.8591 17.8834 25.1296C18.0063 25.1296 18.1292 25.1296 18.2559 25.1296C18.2783 24.9883 18.3006 24.8471 18.323 24.7019C18.6751 23.0212 19.5003 21.4578 20.2287 19.9341C20.5435 19.2459 20.8062 18.5438 21.0632 17.8297C21.2272 17.3981 21.4097 16.9903 21.6091 16.5766C21.8829 16.0097 22.1139 15.4408 22.3318 14.8481C22.7044 13.8237 23.1385 12.8332 23.5744 11.8386C23.8799 11.1246 24.1481 10.4025 24.4145 9.67254C24.638 9.08974 24.9026 8.53678 25.1801 7.98183C25.3441 7.60192 25.4372 7.23792 25.521 6.83016C25.644 6.83016 25.7669 6.83016 25.8936 6.83016C25.9234 6.57358 25.9234 6.57358 25.9551 6.31102C26.0855 5.60291 26.2997 5.05393 26.5922 4.40549C26.6928 4.18272 26.7915 3.95795 26.8958 3.72722C26.9946 3.50445 27.0951 3.28167 27.1976 3.05094C27.4435 2.47013 27.6857 1.88933 27.9278 1.30852C28.129 0.862969 28.129 0.862969 28.5016 0.266249C28.971 0.198621 28.971 0.198621 29.556 0.208566C29.7665 0.210555 29.9751 0.212544 30.1893 0.214533C30.4092 0.218511 30.6271 0.224478 30.8525 0.228457C31.1841 0.232435 31.1841 0.232435 31.5213 0.236413C32.0671 0.244369 32.6129 0.254314 33.1587 0.266249C33.0358 0.331888 32.9128 0.397527 32.7861 0.465155C32.7861 0.662073 32.7861 0.85899 32.7861 1.06188C32.6129 1.07978 32.6129 1.07978 32.4359 1.09967C32.0093 1.22299 32.0093 1.22299 31.8324 1.65859C31.6144 2.45422 31.6181 3.18421 31.6256 4.00967C31.6256 4.17874 31.6256 4.34781 31.6256 4.52285C31.6256 4.88088 31.6275 5.23891 31.6293 5.59893C31.633 6.13996 31.633 6.68098 31.633 7.22201C31.633 9.29661 31.633 9.29661 31.7579 11.3632C31.9199 13.1256 31.9032 14.8978 31.9274 16.6661C31.9721 19.8665 32.0298 23.0649 32.2161 26.2613C32.2292 26.514 32.2441 26.7666 32.2571 27.0271C32.3298 28.1748 32.4303 29.2151 32.7861 30.3011C32.8476 30.4981 32.9091 30.695 32.9724 30.8979C33.0954 30.9635 33.2183 31.0291 33.345 31.0968C33.345 31.228 33.345 31.3593 33.345 31.4946C33.5238 31.5324 33.5238 31.5324 33.7064 31.5702C33.8331 31.6099 33.9597 31.6517 34.0901 31.6935C34.1516 31.8248 34.2131 31.956 34.2764 32.0913C33.7194 32.3897 33.1475 32.3181 32.5365 32.3161C32.3335 32.3161 32.3335 32.3161 32.1267 32.3181C31.8417 32.3181 31.5548 32.3161 31.2698 32.3161C30.832 32.3161 30.3942 32.3161 29.9565 32.3181C29.6789 32.3181 29.4014 32.3161 29.1238 32.3161C28.9934 32.3161 28.8611 32.3181 28.727 32.3181C27.7993 32.3121 27.7993 32.3121 27.3839 32.0913C27.3839 31.96 27.3839 31.8287 27.3839 31.6935C27.5292 31.6815 27.6764 31.6696 27.8272 31.6557C28.3507 31.5503 28.3507 31.5503 28.537 31.047C28.5873 30.866 28.6357 30.685 28.6879 30.5C28.7512 30.3529 28.8164 30.2037 28.8816 30.0525C29.0977 29.3941 29.1033 28.8591 29.0958 28.1629C29.094 27.9341 29.0921 27.7054 29.0921 27.4707C29.0698 26.7149 29.0698 26.7149 28.971 25.9451C28.8406 24.7238 28.8146 23.5005 28.781 22.2733C28.7736 22.0207 28.7661 21.768 28.7587 21.5075C28.7345 20.7059 28.7102 19.9023 28.6879 19.1007C28.6655 18.2991 28.6413 17.4995 28.6171 16.6979C28.6022 16.2026 28.5891 15.7054 28.5742 15.2081C28.537 13.9172 28.4643 12.6343 28.3582 11.3473C28.3004 10.6114 28.2743 9.87741 28.2557 9.13947C28.252 8.99626 28.2482 8.85503 28.2445 8.70784C28.2333 8.26428 28.2222 7.82072 28.211 7.37716C28.2017 7.07084 28.1942 6.76651 28.1868 6.4602C28.1663 5.72226 28.1477 4.98232 28.129 4.24438C27.6968 5.14742 27.287 6.05045 26.9293 6.99128C26.5586 7.95797 26.1619 8.90874 25.7539 9.85752C25.5117 10.4304 25.2882 11.0092 25.0665 11.592C24.748 12.4194 24.3996 13.219 24.0196 14.0147C23.606 14.8819 23.2428 15.7491 22.9149 16.6561C22.5591 17.6308 22.1754 18.5955 21.7953 19.5602C21.6724 19.5602 21.5494 19.5602 21.4228 19.5602C21.4023 19.7332 21.3836 19.9083 21.3632 20.0853C21.2309 20.7775 21.026 21.2648 20.713 21.8854C20.3367 22.6572 20.0107 23.411 19.7462 24.2345C19.4183 25.2489 18.9862 26.1798 18.526 27.1326C18.2019 27.8307 17.9392 28.5428 17.6896 29.2748C17.4959 29.7422 17.2518 30.1042 16.9519 30.5C16.1919 30.2295 16.0466 29.7183 15.7057 28.9963C15.6088 28.7974 15.6088 28.7974 15.5101 28.5925C15.3052 28.1689 15.104 27.7432 14.9028 27.3175C14.8376 27.1803 14.7724 27.045 14.7072 26.9038C14.1744 25.78 13.651 24.6522 13.1294 23.5224C12.6655 22.5239 12.1886 21.5333 11.695 20.5488C11.0597 19.2817 10.4487 18.0067 9.88428 16.6999C9.28444 15.3115 8.63244 13.955 7.95809 12.6044C7.38806 11.4627 6.84038 10.311 6.30574 9.1514C5.80091 8.06537 5.25882 7.0052 4.70369 5.94901C4.47084 5.43782 4.47084 5.43782 4.47084 4.8411C4.34789 4.8411 4.22494 4.8411 4.09827 4.8411C3.89336 7.54225 3.85237 10.2414 3.80953 12.9505C3.80021 13.5373 3.78904 14.1221 3.77786 14.7089C3.776 14.8839 3.77227 15.0589 3.77041 15.2399C3.74992 16.318 3.68099 17.3822 3.58226 18.4563C3.52637 19.1226 3.50029 19.7889 3.4798 20.4592C3.47608 20.5905 3.47235 20.7218 3.46863 20.8551C3.45559 21.2728 3.44627 21.6905 3.43509 22.1082C3.43137 22.2514 3.42764 22.3946 3.42392 22.5438C3.40529 23.2678 3.38852 23.9918 3.37176 24.7178C3.36058 25.2231 3.34754 25.7303 3.33264 26.2355C3.31587 26.8362 3.30469 27.4369 3.29538 28.0376C3.28979 28.2106 3.2842 28.3817 3.27861 28.5587C3.26744 29.7024 3.47794 30.3568 4.09827 31.2957C4.48574 31.5881 4.48574 31.5881 4.84341 31.6935C4.84341 31.8248 4.84341 31.956 4.84341 32.0913C4.38142 32.3379 4.06846 32.3161 3.55059 32.3161C3.36989 32.3161 3.18734 32.3181 2.99919 32.3181C2.80918 32.3161 2.6173 32.3161 2.4217 32.3141C2.13483 32.3161 2.13483 32.3161 1.84422 32.3181C1.66166 32.3181 1.4791 32.3161 1.29282 32.3161C1.12516 32.3161 0.957505 32.3161 0.78426 32.3161C0.37257 32.2902 0.37257 32.2902 0 32.0913C0 31.96 0 31.8287 0 31.6935C0.253348 31.5403 0.253348 31.5403 0.512284 31.3832C1.31145 30.8362 1.57783 30.0465 1.86285 29.1077C1.95785 28.4811 1.96717 27.8705 1.96344 27.236C1.96531 27.0609 1.96717 26.8859 1.96903 26.7049C1.97276 26.333 1.97648 25.959 1.97648 25.5871C1.98021 24.5925 1.99511 23.6 2.01001 22.6054C2.01188 22.4085 2.0156 22.2116 2.01747 22.0087C2.03982 20.4811 2.12179 18.9694 2.23542 17.4478C2.43474 14.6034 2.50181 11.7571 2.55769 8.90874C2.56701 8.37965 2.58005 7.85056 2.59122 7.32146C2.60985 6.57358 2.62289 5.8237 2.63407 5.07581C2.64152 4.84906 2.64711 4.62429 2.6527 4.38958C2.67133 2.90375 2.54093 2.00867 1.54803 0.900761C1.40645 0.757548 1.26487 0.612346 1.11771 0.465155C1.11771 0.399516 1.11771 0.333877 1.11771 0.266249Z" fill="#020202"/>
<path d="M137.233 0.0339611C137.377 0.0339611 137.52 0.031972 137.669 0.031972C137.973 0.0299829 138.276 0.0299829 138.582 0.0299829C139.048 0.0299829 139.513 0.0260048 139.981 0.0220267C140.275 0.0220267 140.571 0.0220267 140.866 0.0220267C141.005 0.0200376 141.145 0.0180485 141.29 0.0180485C142.28 0.0220267 142.28 0.0220267 142.695 0.465588C142.607 0.533216 142.52 0.600845 142.429 0.670462C142.313 0.765937 142.198 0.863401 142.077 0.962855C141.963 1.05435 141.847 1.14784 141.73 1.24132C140.845 2.32735 140.748 3.63417 140.76 5.00861C140.758 5.26122 140.758 5.26122 140.756 5.51781C140.754 6.06879 140.756 6.62175 140.758 7.17272C140.758 7.56058 140.756 7.94845 140.756 8.33433C140.754 9.14587 140.756 9.95741 140.76 10.7689C140.761 11.8013 140.76 12.8336 140.756 13.8659C140.754 14.6655 140.756 15.4671 140.756 16.2667C140.758 16.6466 140.756 17.0265 140.756 17.4065C140.746 20.5233 140.834 23.6422 142.509 26.3234C142.509 26.5204 142.509 26.7173 142.509 26.9202C142.693 26.9858 142.878 27.0514 143.068 27.1191C143.068 27.2503 143.068 27.3816 143.068 27.5169C143.191 27.5169 143.314 27.5169 143.44 27.5169C143.928 27.9883 143.928 27.9883 144.372 28.5114C144.372 28.6427 144.372 28.774 144.372 28.9092C144.55 28.9769 144.55 28.9769 144.731 29.0465C145.303 29.307 145.303 29.307 145.625 29.5338C147.687 30.952 150.39 31.1151 152.754 30.6994C154.416 30.2956 156.046 29.3946 157.412 28.3125C157.473 28.1812 157.534 28.0499 157.598 27.9147C157.721 27.9147 157.844 27.9147 157.97 27.9147C158.023 27.7973 158.075 27.678 158.129 27.5587C158.321 27.1628 158.533 26.8227 158.773 26.4607C160.334 23.7317 160.34 20.9947 160.316 17.8938C160.316 17.4482 160.316 17.0047 160.316 16.5611C160.316 15.6382 160.312 14.7133 160.306 13.7903C160.299 12.6068 160.297 11.4233 160.299 10.2399C160.299 9.32489 160.297 8.4119 160.295 7.49892C160.293 7.06133 160.293 6.62572 160.293 6.18813C160.292 5.57948 160.288 4.97281 160.284 4.36416C160.284 4.18514 160.284 4.00414 160.286 3.81915C160.271 2.68737 160.129 1.96932 159.347 1.14585C159.25 1.0643 159.153 0.982745 159.053 0.901194C158.879 0.755992 158.706 0.612779 158.529 0.465588C158.591 0.33431 158.652 0.203032 158.716 0.0677752C160.129 0.0677752 161.543 0.0677752 163 0.0677752C163 0.664495 163 0.664495 162.743 1.00065C162.441 1.26121 162.441 1.26121 162.069 1.26121C161.541 2.53621 161.48 3.76744 161.474 5.14785C161.473 5.31294 161.471 5.48002 161.469 5.65108C161.465 6.0111 161.463 6.37112 161.461 6.73114C161.456 7.30399 161.452 7.87685 161.446 8.44771C161.435 9.667 161.426 10.8843 161.417 12.1016C161.405 13.5079 161.392 14.9142 161.379 16.3204C161.376 16.8794 161.372 17.4403 161.368 17.9992C161.335 22.0092 161.206 25.4522 158.716 28.7103C158.593 28.7103 158.47 28.7103 158.343 28.7103C158.291 28.8297 158.241 28.949 158.186 29.0743C157.577 30.2837 156.359 30.9202 155.269 31.5567C155.152 31.6263 155.035 31.6959 154.913 31.7675C154.131 32.2091 153.459 32.3881 152.568 32.4895C152.507 32.5552 152.445 32.6208 152.382 32.6884C149.588 33.2275 146.242 33.2056 143.813 31.495C143.502 31.3598 143.192 31.2265 142.881 31.0972C142.697 30.9659 142.512 30.8346 142.322 30.6994C142.322 30.5681 142.322 30.4368 142.322 30.3016C142.213 30.2817 142.105 30.2638 141.993 30.2439C141.484 30.0708 141.249 29.8262 140.879 29.4184C140.763 29.2951 140.65 29.1738 140.532 29.0465C140.273 28.7103 140.273 28.7103 140.273 28.3125C140.15 28.3125 140.027 28.3125 139.901 28.3125C138.163 25.3906 137.457 22.5442 137.446 19.0713C137.446 18.8903 137.444 18.7093 137.442 18.5223C137.44 18.1325 137.438 17.7426 137.436 17.3528C137.432 16.7342 137.429 16.1156 137.423 15.4989C137.41 13.7426 137.399 11.9863 137.39 10.2319C137.384 9.15582 137.377 8.07973 137.367 7.00365C137.364 6.5939 137.362 6.18415 137.36 5.7744C137.358 5.20354 137.354 4.63069 137.349 4.05983C137.349 3.89076 137.349 3.72169 137.349 3.54864C137.339 2.70726 137.313 2.01308 136.92 1.26121C136.557 1.14386 136.557 1.14386 136.175 1.06231C135.849 0.65256 135.849 0.65256 135.616 0.266682C135.987 -0.131131 136.725 0.0339611 137.233 0.0339611Z" fill="#020202"/>
<path d="M106.182 0.0673828C106.62 0.101197 106.62 0.101197 107.114 0.266289C107.369 0.717807 107.369 0.717807 107.568 1.31055C107.974 2.4662 108.446 3.56814 108.951 4.68003C109.163 5.23895 109.163 5.23895 109.163 6.03458C109.286 6.03458 109.409 6.03458 109.535 6.03458C109.619 6.25537 109.619 6.25537 109.707 6.48013C110.243 7.87049 110.808 9.24294 111.398 10.6094C111.879 11.7213 112.348 12.8332 112.784 13.967C113.28 15.2519 113.827 16.509 114.379 17.7701C114.91 18.9953 115.415 20.2206 115.873 21.4777C116.102 22.0684 116.374 22.6254 116.665 23.1823C116.801 23.5384 116.801 23.5384 116.801 24.334C116.924 24.334 117.046 24.334 117.173 24.334C117.229 24.4812 117.287 24.6284 117.345 24.7795C117.82 26.0068 118.311 27.2181 118.846 28.4175C119.038 28.9128 119.14 29.3763 119.222 29.9034C119.345 29.9034 119.468 29.9034 119.595 29.9034C119.595 30.1003 119.595 30.2972 119.595 30.5001C119.779 30.5657 119.964 30.6314 120.154 30.699C120.154 30.8303 120.154 30.9615 120.154 31.0968C120.331 31.1585 120.508 31.2201 120.69 31.2838C121.271 31.4946 121.271 31.4946 121.644 31.6935C121.644 31.8248 121.644 31.9561 121.644 32.0913C121.094 32.3857 120.599 32.3161 119.984 32.3161C119.858 32.3161 119.731 32.3161 119.6 32.3181C119.332 32.3181 119.064 32.3161 118.796 32.3161C118.386 32.3161 117.974 32.3161 117.564 32.3181C117.304 32.3181 117.043 32.3161 116.784 32.3161C116.426 32.3161 116.426 32.3161 116.063 32.3161C115.497 32.2902 115.497 32.2902 115.124 32.0913C115.124 31.9601 115.124 31.8288 115.124 31.6935C115.247 31.6239 115.37 31.5543 115.497 31.4827C115.938 31.0252 115.938 30.888 115.962 30.2514C115.929 29.4678 115.744 28.9506 115.336 28.2882C115.089 27.8506 114.923 27.4091 114.751 26.9317C114.474 26.1659 114.165 25.4359 113.807 24.7099C113.602 24.2644 113.434 23.8009 113.261 23.3394C108.159 23.3394 103.056 23.3394 97.7995 23.3394C96.8047 25.5931 96.8047 25.5931 95.9199 27.8725C95.7466 28.3221 95.5455 28.7417 95.3312 29.1694C95.0443 29.7741 94.845 30.2137 95.0052 30.8979C95.4523 31.3633 95.4523 31.3633 95.9367 31.6935C95.8752 31.8904 95.8137 32.0874 95.7504 32.2902C95.1375 32.2962 94.5246 32.3002 93.9099 32.3022C93.6491 32.3062 93.6491 32.3062 93.3827 32.3081C93.215 32.3081 93.0474 32.3081 92.876 32.3101C92.7214 32.3101 92.5686 32.3121 92.4084 32.3121C92.0247 32.2902 92.0247 32.2902 91.6521 32.0913C91.6521 31.9601 91.6521 31.8288 91.6521 31.6935C91.7583 31.6398 91.8626 31.5881 91.9706 31.5344C92.1774 31.429 92.1774 31.429 92.3861 31.3196C92.5221 31.2519 92.658 31.1823 92.7978 31.1107C93.1722 30.9238 93.1722 30.9238 93.3287 30.5001C93.4516 30.5001 93.5746 30.5001 93.7012 30.5001C93.7478 30.335 93.7944 30.1719 93.8409 30.0028C94.0514 29.3743 94.3067 28.8034 94.5935 28.2107C95.1654 26.9576 95.7094 25.6567 96.1229 24.334C96.2459 24.334 96.3688 24.334 96.4955 24.334C96.4806 24.1987 96.4657 24.0635 96.4489 23.9242C96.5011 23.2738 96.7116 22.9078 97.0283 22.3628C97.2779 21.8735 97.4437 21.3802 97.6132 20.8531C97.82 20.2166 98.0268 19.6378 98.3584 19.063C98.6769 18.506 98.88 17.9531 99.0811 17.3345C99.3475 16.515 99.6624 15.7571 100.035 14.9854C100.564 13.8874 100.972 12.7735 101.339 11.604C101.462 11.604 101.585 11.604 101.711 11.604C101.732 11.4329 101.751 11.2618 101.771 11.0848C101.905 10.3707 102.123 9.81977 102.421 9.16736C102.768 8.39162 103.099 7.61986 103.388 6.81827C103.66 6.07237 103.977 5.36625 104.319 4.65417C104.774 3.70339 105.134 2.75063 105.46 1.74417C105.659 1.1554 105.903 0.618354 106.182 0.0673828ZM105.437 4.84114C104.334 7.1584 103.235 9.47168 102.436 11.9322C102.285 12.3558 102.116 12.7198 101.898 13.1077C101.51 13.8178 101.242 14.5239 100.966 15.2897C100.799 15.7333 100.612 16.153 100.407 16.5766C100.054 17.3106 99.7723 18.0625 99.491 18.8302C99.1985 19.6 98.8669 20.3499 98.5353 21.1017C98.3341 21.5294 98.3341 21.5294 98.3584 21.9471C98.906 22.2395 99.4556 22.1719 100.055 22.1679C100.191 22.1679 100.329 22.1679 100.469 22.1679C100.92 22.1679 101.372 22.1679 101.823 22.1659C102.136 22.1659 102.449 22.1639 102.762 22.1639C103.586 22.1639 104.409 22.1619 105.232 22.1599C106.074 22.1579 106.914 22.156 107.755 22.156C109.403 22.154 111.054 22.15 112.702 22.146C112.235 20.0436 111.21 18.0406 110.353 16.0913C110.253 15.8626 110.152 15.6318 110.048 15.3951C109.955 15.1843 109.861 14.9734 109.765 14.7566C109.578 14.2972 109.442 13.8834 109.349 13.3941C109.226 13.3941 109.103 13.3941 108.977 13.3941C108.954 13.2509 108.93 13.1077 108.908 12.9585C108.79 12.4016 108.625 11.9302 108.41 11.407C108.334 11.2181 108.258 11.0311 108.177 10.8362C108.054 10.5398 108.054 10.5398 107.93 10.2355C107.846 10.0346 107.762 9.83171 107.676 9.62285C107.015 8.01768 106.331 6.42444 105.623 4.84114C105.562 4.84114 105.501 4.84114 105.437 4.84114Z" fill="#020202"/>
<path d="M48.9929 0.266235C51.206 0.266235 53.419 0.266235 55.6992 0.266235C55.1403 1.26077 55.1403 1.26077 54.7566 1.65858C54.0859 2.39652 53.976 3.16231 53.9723 4.1648C53.9705 4.49698 53.9705 4.49698 53.9686 4.83512C53.9686 5.07778 53.9686 5.31846 53.9686 5.56709C53.9667 5.82169 53.9667 6.07828 53.9649 6.34084C53.9611 7.04099 53.9611 7.74114 53.9611 8.44129C53.9593 8.87889 53.9593 9.31648 53.9574 9.75408C53.9556 11.2837 53.9537 12.8133 53.9537 14.3409C53.9537 15.763 53.95 17.1872 53.9444 18.6094C53.9388 19.8327 53.9369 21.0559 53.9369 22.2792C53.9369 23.0092 53.9369 23.7392 53.9332 24.4692C53.9276 25.2827 53.9295 26.0982 53.9313 26.9118C53.9295 27.2718 53.9295 27.2718 53.9257 27.6398C53.9351 29.0162 54.0617 29.9331 54.7678 31.0967C55.2521 31.4667 55.2521 31.4667 55.6992 31.6935C55.6992 31.8247 55.6992 31.956 55.6992 32.0913C55.1385 32.3896 54.6225 32.316 54.0003 32.316C53.868 32.316 53.7376 32.316 53.6035 32.318C53.3259 32.318 53.0483 32.316 52.7726 32.316C52.3479 32.316 51.9232 32.316 51.4985 32.318C51.2302 32.318 50.962 32.316 50.6918 32.316C50.4478 32.316 50.2019 32.316 49.9486 32.316C49.3655 32.2902 49.3655 32.2902 48.9929 32.0913C48.9929 31.96 48.9929 31.8287 48.9929 31.6935C49.3636 31.4269 49.7362 31.1604 50.1106 30.8978C50.5354 30.2176 50.5316 29.9709 50.5335 29.1713C50.5354 28.9366 50.5372 28.6999 50.5391 28.4573C50.5409 28.1987 50.5409 27.9401 50.5409 27.6756C50.5409 27.3991 50.5428 27.1246 50.5447 26.8501C50.5484 26.1042 50.5503 25.3563 50.5521 24.6104C50.5521 24.143 50.554 23.6775 50.554 23.2101C50.5596 21.583 50.5614 19.956 50.5633 18.3289C50.5633 16.8113 50.5689 15.2936 50.5763 13.778C50.5838 12.4751 50.5857 11.1723 50.5857 9.86944C50.5857 9.09172 50.5875 8.31399 50.5931 7.53627C50.5987 6.80429 50.5987 6.07232 50.595 5.34034C50.595 4.94452 50.5987 4.54869 50.6024 4.15287C50.6229 2.80229 50.6229 2.80229 50.0454 1.65261C49.8834 1.52332 49.7194 1.39404 49.5518 1.26077C49.3674 0.932572 49.1829 0.604376 48.9929 0.266235Z" fill="#020202"/>
<path d="M74.2812 7.09121C75.0394 7.69788 75.317 8.26277 75.4697 9.25532C75.5275 9.89182 75.5275 9.89182 75.8181 10.411C75.9261 10.1842 75.9261 10.1842 76.036 9.95348C76.1813 9.65711 76.1813 9.65711 76.3304 9.35477C76.4254 9.15785 76.5204 8.96093 76.6191 8.76004C76.9433 8.20907 77.1463 7.92861 77.6809 7.62627C78.2435 7.5666 78.2435 7.5666 78.8452 7.58848C79.147 7.59643 79.147 7.59643 79.4544 7.60439C79.6071 7.61235 79.7599 7.61831 79.9164 7.62627C79.9164 7.75755 79.9164 7.88883 79.9164 8.02408C80.1008 8.08972 80.2852 8.15536 80.4752 8.22299C81.0546 9.10614 81.0788 9.7486 80.9335 10.771C80.8236 11.3319 80.669 11.865 80.4752 12.4C80.6596 12.3006 80.6596 12.3006 80.8478 12.2011C81.4215 12.1056 81.9506 12.0917 82.5243 12.2011C83.2732 12.8535 83.4185 13.1479 83.5731 14.1643C83.5005 15.2683 82.9547 16.1136 82.2393 16.8834C81.1794 17.866 80.5386 18.0171 79.1712 17.9694C79.2271 18.1086 79.283 18.2479 79.3407 18.3911C79.9406 19.9903 79.9797 20.8257 79.5326 22.4826C79.0576 23.3478 78.5472 23.7576 77.6809 24.1355C76.7849 24.3623 76.1664 24.1753 75.3878 23.676C74.9221 23.3399 74.529 22.9779 74.1415 22.5443C74.0111 22.59 73.8807 22.6338 73.7447 22.6815C72.6065 23.0495 71.7645 23.2623 70.6021 22.9421C69.9985 22.5224 69.6986 22.1902 69.2981 21.5497C69.1882 20.5592 69.1826 19.6482 69.5533 18.7272C69.6539 18.6079 69.7545 18.4886 69.857 18.3672C69.9799 18.3672 70.1029 18.3672 70.2295 18.3672C70.291 18.1703 70.3525 17.9734 70.4158 17.7705C70.5388 17.7705 70.6617 17.7705 70.7884 17.7705C70.7884 17.6392 70.7884 17.5079 70.7884 17.3727C71.161 17.0485 71.161 17.0485 71.5335 16.776C71.4106 16.7302 71.2858 16.6845 71.1591 16.6367C70.1513 16.2389 69.4304 15.8988 68.7393 14.9858C68.5977 14.8088 68.4542 14.6318 68.3089 14.4508C67.8805 13.5537 67.8172 12.7899 67.9941 11.8033C68.4487 11.1051 68.7393 10.8704 69.4956 10.6218C70.0731 10.6079 70.2966 10.7173 70.7884 11.0077C70.7791 10.7232 70.7791 10.7232 70.7679 10.4328C70.7642 10.1842 70.7586 9.93359 70.753 9.677C70.7437 9.30703 70.7437 9.30703 70.7344 8.92911C70.7921 8.17525 70.9188 7.8212 71.3473 7.22846C72.3681 6.48455 73.1803 6.5303 74.2812 7.09121ZM72.1166 8.20907C71.7608 9.24139 71.7291 10.1086 72.0961 11.1469C72.6792 12.5114 72.6792 12.5114 73.7801 13.3448C74.1564 13.4324 74.1564 13.4324 74.5141 13.1957C74.5402 12.5989 74.5569 12.0022 74.5718 11.4055C74.5793 11.2384 74.5886 11.0713 74.5961 10.8983C74.6184 9.66705 74.3893 8.74214 73.5827 7.82518C72.8748 7.62826 72.627 7.64417 72.1166 8.20907ZM77.9026 9.09221C77.6437 9.40251 77.6437 9.40251 77.6809 9.81424C77.4965 9.87988 77.3121 9.94552 77.1221 10.0131C77.1221 10.2757 77.1221 10.5383 77.1221 10.8088C76.9991 10.8088 76.8762 10.8088 76.7495 10.8088C76.7346 11.1986 76.7234 11.5865 76.7141 11.9764C76.7085 12.1932 76.7011 12.41 76.6955 12.6347C76.7123 12.8197 76.7309 13.0047 76.7495 13.1957C77.2469 13.6372 77.2469 13.6372 77.6698 13.5676C78.4857 13.1996 78.998 12.4438 79.3575 11.6044C79.5494 10.5741 79.6928 9.7486 79.1712 8.81971C78.4876 8.75407 78.4876 8.75407 77.9026 9.09221ZM69.1118 12.4C69.0448 13.1618 69.0448 13.494 69.4732 14.1285C69.5999 14.2797 69.7266 14.4309 69.857 14.588C69.9184 14.7849 69.9799 14.9818 70.0433 15.1847C70.6971 15.4294 70.6971 15.4294 71.3473 15.5825C71.5969 15.2643 71.5969 15.2643 71.7198 14.7869C71.4795 14.045 71.4795 14.045 71.161 13.3946C71.038 13.3946 70.9151 13.3946 70.7884 13.3946C70.7418 13.2712 70.6953 13.1479 70.6487 13.0206C70.2407 12.2807 69.8681 12.1295 69.1118 12.4ZM75.2592 12.7978C75.1978 13.2573 75.1363 13.7168 75.073 14.1902C75.3803 14.1902 75.6877 14.1902 76.0044 14.1902C75.9429 13.7964 75.8814 13.4025 75.8181 12.9967C75.6337 12.9311 75.4492 12.8655 75.2592 12.7978ZM81.0676 13.5716C80.9614 13.6611 80.8534 13.7506 80.7435 13.8421C80.6354 13.9296 80.5274 14.0151 80.4156 14.1066C80.261 14.2459 80.261 14.2459 80.1026 14.3891C79.9462 14.5243 79.9462 14.5244 79.786 14.6636C79.46 15.0972 79.486 15.3697 79.5084 15.9187C79.514 16.0778 79.5196 16.2389 79.5233 16.404C79.5307 16.5273 79.5363 16.6487 79.5438 16.776C80.559 16.5253 81.537 16.1176 82.1518 15.1847C82.2133 14.6357 82.1872 14.1484 82.1518 13.5935C81.7066 13.4224 81.5016 13.3448 81.0676 13.5716ZM72.8375 14.3891C72.8375 14.8486 72.8375 15.308 72.8375 15.7814C73.4597 15.6701 73.9608 15.5129 74.5141 15.1847C74.4526 14.9878 74.3911 14.7909 74.3278 14.588C73.836 14.5224 73.3442 14.4567 72.8375 14.3891ZM76.1907 14.3891C76.2503 15.0992 76.3099 15.493 76.7383 16.0539C77.0886 16.4179 77.0886 16.4179 77.4947 16.3782C77.4947 16.5094 77.4947 16.6407 77.4947 16.776C77.9566 16.9729 77.9566 16.9729 78.4261 17.1738C78.4261 16.3861 78.4261 15.5984 78.4261 14.7869C78.1616 14.7571 77.8952 14.7292 77.6232 14.6994C77.1016 14.6437 76.6918 14.5661 76.1907 14.3891ZM75.2592 15.1847C74.8177 15.7118 74.8177 15.7118 74.7004 16.3782C74.57 16.4219 74.4396 16.4677 74.3036 16.5154C73.6535 16.8317 73.1933 17.2772 72.6512 17.7705C72.2098 18.0311 72.2098 18.0311 71.9061 18.1683C71.9061 18.2996 71.9061 18.4309 71.9061 18.5661C71.7943 18.6198 71.6826 18.6716 71.5689 18.7272C71.1461 18.9719 70.9002 19.1609 70.6021 19.5607C70.535 20.0142 70.535 20.0142 70.5667 20.4935C70.5723 20.6527 70.5779 20.8138 70.5816 20.9789C70.5891 21.1022 70.5947 21.2235 70.6021 21.3508C70.7251 21.3508 70.848 21.3508 70.9747 21.3508C70.9747 21.4821 70.9747 21.6134 70.9747 21.7486C71.9881 21.8381 72.5264 21.6512 73.4094 21.13C73.9105 20.8834 74.3446 20.8953 74.8867 20.953C74.9332 21.1698 74.9798 21.3866 75.0264 21.6114C75.2741 22.3911 75.3617 22.5443 76.0044 22.9421C76.4664 23.0435 76.4664 23.0435 76.947 23.0276C77.1072 23.0316 77.2674 23.0356 77.4313 23.0395C77.8859 22.9799 77.8859 22.9799 78.1932 22.6139C78.6869 21.6233 78.6794 20.6328 78.4261 19.5607C77.966 18.8307 77.3549 18.2717 76.7346 17.7009C75.9578 16.947 75.5945 16.2906 75.4455 15.1847C75.384 15.1847 75.3226 15.1847 75.2592 15.1847Z" fill="#020202"/>
<path d="M74.2812 7.09121C75.0394 7.69788 75.317 8.26277 75.4697 9.25532C75.5275 9.89182 75.5275 9.89182 75.8181 10.411C75.9261 10.1842 75.9261 10.1842 76.036 9.95348C76.1813 9.65711 76.1813 9.65711 76.3304 9.35477C76.4254 9.15785 76.5204 8.96093 76.6191 8.76004C76.9433 8.20907 77.1463 7.92861 77.6809 7.62627C78.2435 7.5666 78.2435 7.5666 78.8452 7.58848C79.147 7.59643 79.147 7.59643 79.4544 7.60439C79.6071 7.61235 79.7599 7.61831 79.9164 7.62627C79.9164 7.75755 79.9164 7.88883 79.9164 8.02408C80.1008 8.08972 80.2852 8.15536 80.4752 8.22299C81.0546 9.10614 81.0788 9.7486 80.9335 10.771C80.8236 11.3319 80.669 11.865 80.4752 12.4C80.6596 12.3006 80.6596 12.3006 80.8478 12.2011C81.4215 12.1056 81.9506 12.0917 82.5243 12.2011C83.2732 12.8535 83.4185 13.1479 83.5731 14.1643C83.5005 15.2683 82.9547 16.1136 82.2393 16.8834C81.1794 17.866 80.5386 18.0171 79.1712 17.9694C79.2271 18.1086 79.283 18.2479 79.3407 18.3911C79.9406 19.9903 79.9797 20.8257 79.5326 22.4826C79.0576 23.3478 78.5472 23.7576 77.6809 24.1355C76.7849 24.3623 76.1664 24.1753 75.3878 23.676C74.9221 23.3399 74.529 22.9779 74.1415 22.5443C74.0111 22.59 73.8807 22.6338 73.7447 22.6815C72.6065 23.0495 71.7645 23.2623 70.6021 22.9421C69.9985 22.5224 69.6986 22.1902 69.2981 21.5497C69.1882 20.5592 69.1826 19.6482 69.5533 18.7272C69.6539 18.6079 69.7545 18.4886 69.857 18.3672C69.9799 18.3672 70.1029 18.3672 70.2295 18.3672C70.291 18.1703 70.3525 17.9734 70.4158 17.7705C70.5388 17.7705 70.6617 17.7705 70.7884 17.7705C70.7884 17.6392 70.7884 17.5079 70.7884 17.3727C71.161 17.0485 71.161 17.0485 71.5335 16.776C71.4106 16.7302 71.2858 16.6845 71.1591 16.6367C70.1513 16.2389 69.4304 15.8988 68.7393 14.9858C68.5977 14.8088 68.4542 14.6318 68.3089 14.4508C67.8805 13.5537 67.8172 12.7899 67.9941 11.8033C68.4487 11.1051 68.7393 10.8704 69.4956 10.6218C70.0731 10.6079 70.2966 10.7173 70.7884 11.0077C70.7791 10.7232 70.7791 10.7232 70.7679 10.4328C70.7642 10.1842 70.7586 9.93359 70.753 9.677C70.7437 9.30703 70.7437 9.30703 70.7344 8.92911C70.7921 8.17525 70.9188 7.8212 71.3473 7.22846C72.3681 6.48455 73.1803 6.5303 74.2812 7.09121ZM72.1166 8.20907C71.7608 9.24139 71.7291 10.1086 72.0961 11.1469C72.6792 12.5114 72.6792 12.5114 73.7801 13.3448C74.1564 13.4324 74.1564 13.4324 74.5141 13.1957C74.5402 12.5989 74.5569 12.0022 74.5718 11.4055C74.5793 11.2384 74.5886 11.0713 74.5961 10.8983C74.6184 9.66705 74.3893 8.74214 73.5827 7.82518C72.8748 7.62826 72.627 7.64417 72.1166 8.20907ZM77.9026 9.09221C77.6437 9.40251 77.6437 9.40251 77.6809 9.81424C77.4965 9.87988 77.3121 9.94552 77.1221 10.0131C77.1221 10.2757 77.1221 10.5383 77.1221 10.8088C76.9991 10.8088 76.8762 10.8088 76.7495 10.8088C76.7346 11.1986 76.7234 11.5865 76.7141 11.9764C76.7085 12.1932 76.7011 12.41 76.6955 12.6347C76.7123 12.8197 76.7309 13.0047 76.7495 13.1957C77.2469 13.6372 77.2469 13.6372 77.6698 13.5676C78.4857 13.1996 78.998 12.4438 79.3575 11.6044C79.5494 10.5741 79.6928 9.7486 79.1712 8.81971C78.4876 8.75407 78.4876 8.75407 77.9026 9.09221ZM69.1118 12.4C69.0448 13.1618 69.0448 13.494 69.4732 14.1285C69.5999 14.2797 69.7266 14.4309 69.857 14.588C69.9184 14.7849 69.9799 14.9818 70.0433 15.1847C70.6971 15.4294 70.6971 15.4294 71.3473 15.5825C71.5969 15.2643 71.5969 15.2643 71.7198 14.7869C71.4795 14.045 71.4795 14.045 71.161 13.3946C71.038 13.3946 70.9151 13.3946 70.7884 13.3946C70.7418 13.2712 70.6953 13.1479 70.6487 13.0206C70.2407 12.2807 69.8681 12.1295 69.1118 12.4ZM75.2592 12.7978C75.1978 13.2573 75.1363 13.7168 75.073 14.1902C75.3803 14.1902 75.6877 14.1902 76.0044 14.1902C75.9429 13.7964 75.8814 13.4025 75.8181 12.9967C75.6337 12.9311 75.4492 12.8655 75.2592 12.7978ZM81.0676 13.5716C80.9614 13.6611 80.8534 13.7506 80.7435 13.8421C80.6354 13.9296 80.5274 14.0151 80.4156 14.1066C80.261 14.2459 80.261 14.2459 80.1026 14.3891C79.9462 14.5243 79.9462 14.5244 79.786 14.6636C79.46 15.0972 79.486 15.3697 79.5084 15.9187C79.514 16.0778 79.5196 16.2389 79.5233 16.404C79.5307 16.5273 79.5363 16.6487 79.5438 16.776C80.559 16.5253 81.537 16.1176 82.1518 15.1847C82.2133 14.6357 82.1872 14.1484 82.1518 13.5935C81.7066 13.4224 81.5016 13.3448 81.0676 13.5716ZM72.8375 14.3891C72.8375 14.8486 72.8375 15.308 72.8375 15.7814C73.4597 15.6701 73.9608 15.5129 74.5141 15.1847C74.4526 14.9878 74.3911 14.7909 74.3278 14.588C73.836 14.5224 73.3442 14.4567 72.8375 14.3891ZM76.1907 14.3891C76.2503 15.0992 76.3099 15.493 76.7383 16.0539C77.0886 16.4179 77.0886 16.4179 77.4947 16.3782C77.4947 16.5094 77.4947 16.6407 77.4947 16.776C77.9566 16.9729 77.9566 16.9729 78.4261 17.1738C78.4261 16.3861 78.4261 15.5984 78.4261 14.7869C78.1616 14.7571 77.8952 14.7292 77.6232 14.6994C77.1016 14.6437 76.6918 14.5661 76.1907 14.3891ZM75.2592 15.1847C74.8177 15.7118 74.8177 15.7118 74.7004 16.3782C74.57 16.4219 74.4396 16.4677 74.3036 16.5154C73.6535 16.8317 73.1933 17.2772 72.6512 17.7705C72.2098 18.0311 72.2098 18.0311 71.9061 18.1683C71.9061 18.2996 71.9061 18.4309 71.9061 18.5661C71.7943 18.6198 71.6826 18.6716 71.5689 18.7272C71.1461 18.9719 70.9002 19.1609 70.6021 19.5607C70.535 20.0142 70.535 20.0142 70.5667 20.4935C70.5723 20.6527 70.5779 20.8138 70.5816 20.9789C70.5891 21.1022 70.5947 21.2235 70.6021 21.3508C70.7251 21.3508 70.848 21.3508 70.9747 21.3508C70.9747 21.4821 70.9747 21.6134 70.9747 21.7486C71.9881 21.8381 72.5264 21.6512 73.4094 21.13C73.9105 20.8834 74.3446 20.8953 74.8867 20.953C74.9332 21.1698 74.9798 21.3866 75.0264 21.6114C75.2741 22.3911 75.3617 22.5443 76.0044 22.9421C76.4664 23.0435 76.4664 23.0435 76.947 23.0276C77.1072 23.0316 77.2674 23.0356 77.4313 23.0395C77.8859 22.9799 77.8859 22.9799 78.1932 22.6139C78.6869 21.6233 78.6794 20.6328 78.4261 19.5607C77.966 18.8307 77.3549 18.2717 76.7346 17.7009C75.9578 16.947 75.5945 16.2906 75.4455 15.1847C75.384 15.1847 75.3226 15.1847 75.2592 15.1847Z" fill="#020202"/>
</svg>
