<svg width="24" height="25" viewBox="0 0 24 25" fill="none" xmlns="http://www.w3.org/2000/svg">
<path d="M8.91429 0C11.2785 0 13.5459 0.978313 15.2176 2.71972C16.8894 4.46113 17.8286 6.82299 17.8286 9.28571C17.8286 11.5857 17.0194 13.7 15.6891 15.3286L16.0594 15.7143H17.1429L24 22.8571L21.9429 25L15.0857 17.8571V16.7286L14.7154 16.3429C13.152 17.7286 11.1223 18.5714 8.91429 18.5714C6.55007 18.5714 4.28269 17.5931 2.61093 15.8517C0.939181 14.1103 0 11.7484 0 9.28571C0 6.82299 0.939181 4.46113 2.61093 2.71972C4.28269 0.978313 6.55007 0 8.91429 0ZM8.91429 2.85714C5.48571 2.85714 2.74286 5.71429 2.74286 9.28571C2.74286 12.8571 5.48571 15.7143 8.91429 15.7143C12.3429 15.7143 15.0857 12.8571 15.0857 9.28571C15.0857 5.71429 12.3429 2.85714 8.91429 2.85714Z" fill="#484646"/>
</svg>
