<svg width="27" height="35" viewBox="0 0 27 35" fill="none" xmlns="http://www.w3.org/2000/svg">
<path d="M24.7114 8.73636H19.7691V6.98909C19.7691 5.13547 19.0749 3.35777 17.8391 2.04706C16.6033 0.736349 14.9271 0 13.1794 0C11.4317 0 9.75561 0.736349 8.5198 2.04706C7.28399 3.35777 6.58972 5.13547 6.58972 6.98909V8.73636H1.64743C1.2105 8.73636 0.791474 8.92045 0.482521 9.24813C0.173568 9.57581 0 10.0202 0 10.4836V29.7036C0 31.0939 0.520704 32.4271 1.44756 33.4102C2.37442 34.3932 3.63151 34.9455 4.94229 34.9455H21.4166C22.7274 34.9455 23.9844 34.3932 24.9113 33.4102C25.8382 32.4271 26.3589 31.0939 26.3589 29.7036V10.4836C26.3589 10.0202 26.1853 9.57581 25.8763 9.24813C25.5674 8.92045 25.1484 8.73636 24.7114 8.73636ZM9.88457 6.98909C9.88457 6.06228 10.2317 5.17343 10.8496 4.51807C11.4675 3.86272 12.3056 3.49455 13.1794 3.49455C14.0533 3.49455 14.8913 3.86272 15.5092 4.51807C16.1272 5.17343 16.4743 6.06228 16.4743 6.98909V8.73636H9.88457V6.98909ZM23.064 29.7036C23.064 30.167 22.8904 30.6115 22.5815 30.9391C22.2725 31.2668 21.8535 31.4509 21.4166 31.4509H4.94229C4.50536 31.4509 4.08633 31.2668 3.77738 30.9391C3.46843 30.6115 3.29486 30.167 3.29486 29.7036V12.2309H6.58972V13.9782C6.58972 14.4416 6.76328 14.886 7.07224 15.2137C7.38119 15.5414 7.80022 15.7255 8.23715 15.7255C8.67407 15.7255 9.0931 15.5414 9.40205 15.2137C9.71101 14.886 9.88457 14.4416 9.88457 13.9782V12.2309H16.4743V13.9782C16.4743 14.4416 16.6479 14.886 16.9568 15.2137C17.2658 15.5414 17.6848 15.7255 18.1217 15.7255C18.5586 15.7255 18.9777 15.5414 19.2866 15.2137C19.5956 14.886 19.7691 14.4416 19.7691 13.9782V12.2309H23.064V29.7036Z" fill="#262626"/>
</svg>
