<svg width="29" height="32" viewBox="0 0 29 32" fill="none" xmlns="http://www.w3.org/2000/svg">
<path d="M14.5 0.181763C16.4228 0.181763 18.2669 1.01983 19.6265 2.51159C20.9862 4.00336 21.75 6.02663 21.75 8.13631C21.75 10.246 20.9862 12.2693 19.6265 13.761C18.2669 15.2528 16.4228 16.0909 14.5 16.0909C12.5772 16.0909 10.7331 15.2528 9.37348 13.761C8.01384 12.2693 7.25 10.246 7.25 8.13631C7.25 6.02663 8.01384 4.00336 9.37348 2.51159C10.7331 1.01983 12.5772 0.181763 14.5 0.181763ZM14.5 20.0681C22.5112 20.0681 29 23.6278 29 28.0227V31.9999H0V28.0227C0 23.6278 6.48875 20.0681 14.5 20.0681Z" fill="#262626"/>
</svg>
