<svg width="116" height="19" viewBox="0 0 116 19" fill="none" xmlns="http://www.w3.org/2000/svg">
<path d="M10 15.27L16.18 19L14.54 11.97L20 7.24L12.81 6.62L10 0L7.19 6.62L0 7.24L5.45 11.97L3.82 19L10 15.27Z" fill="black"/>
<path d="M34 15.27L40.18 19L38.54 11.97L44 7.24L36.81 6.62L34 0L31.19 6.62L24 7.24L29.45 11.97L27.82 19L34 15.27Z" fill="black"/>
<path d="M58 15.27L64.18 19L62.54 11.97L68 7.24L60.81 6.62L58 0L55.19 6.62L48 7.24L53.45 11.97L51.82 19L58 15.27Z" fill="black"/>
<path d="M82 13.39L78.24 15.66L79.23 11.38L75.91 8.5L80.29 8.13L82 4.09L83.71 8.13L88.09 8.5L84.77 11.38L85.76 15.66M92 7.24L84.81 6.63L82 0L79.19 6.63L72 7.24L77.45 11.97L75.82 19L82 15.27L88.18 19L86.54 11.97L92 7.24Z" fill="black"/>
<path d="M106 13.39L102.24 15.66L103.23 11.38L99.91 8.5L104.29 8.13L106 4.09L107.71 8.13L112.09 8.5L108.77 11.38L109.76 15.66M116 7.24L108.81 6.63L106 0L103.19 6.63L96 7.24L101.45 11.97L99.82 19L106 15.27L112.18 19L110.54 11.97L116 7.24Z" fill="black"/>
</svg>
